<svg xmlns="http://www.w3.org/2000/svg" viewBox="0 0 50 50"><defs><style>.a{fill:#dc9ea5;}.b{fill:#e1b3b8;}.c{fill:#edd0d3;}.d{fill:#dfa5ac;}</style></defs><path class="a" d="M31.55,6.88c2.16-.64,4.37-1.06,6.56-1.61a.5.5,0,0,1,.55.18c1,1.08,2.15,1.91,3.2,2.9a10.25,10.25,0,0,1,2.63,3.79A38.53,38.53,0,0,1,46.34,17a20.37,20.37,0,0,1,.71,3.64c0,.81-.07,1.59-.07,2.39-.4.48-.51.49-.95.06a4.6,4.6,0,0,1,.09-1.48A9.79,9.79,0,0,0,46,19a24.91,24.91,0,0,0-1.09-4.47A.9.9,0,0,0,45,15c.14.39.27.74-.22,1a.94.94,0,0,1-1.29-.16,6.54,6.54,0,0,1-1.5-2,1.66,1.66,0,0,0-1.92-1.12,7.67,7.67,0,0,1-1.73-.12,1.75,1.75,0,0,1-1.68-1.91.37.37,0,0,0-.11-.25A8.19,8.19,0,0,0,35,11.72a1.42,1.42,0,0,1-1.05.58A1.82,1.82,0,0,1,33.36,10a.08.08,0,0,0-.09-.06,7,7,0,0,1-2.62.64,7.1,7.1,0,0,0-2.45.86,3.68,3.68,0,0,1-1.05.38,3.47,3.47,0,0,0-1.35.41,1.16,1.16,0,0,1-1.53-.54,1,1,0,0,1,.48-1.52,5.45,5.45,0,0,1,2-.73,2.75,2.75,0,0,0,1.54-.76c.59-.56,1.43-.67,2-1.22a.26.26,0,0,1,.29,0C31.15,7.7,31.39,7.37,31.55,6.88Z"/><path class="a" d="M43,33.78c-.45,1.22-1.3,2.21-1.8,3.41A6.66,6.66,0,0,1,40,39c-.5.57-.86,1.25-1.35,1.83a12,12,0,0,1-1.94,1.69c-.53.42-.93,1.09-1.62,1.19-1.67.25-3,1.4-4.73,1.52-1.44.11-2.89.35-4.34.39s-3,0-4.44.17a16.2,16.2,0,0,1-3.19.14,1.06,1.06,0,0,1-1-1.46.86.86,0,0,0-.06-.48c-.2-.6-.45-1.19-.64-1.8-.12-.4-.24-.4-.52-.13s-.37.31-.54.49c-.88.84-2,.71-3.11.88a4.5,4.5,0,0,1-2.38-.56c-.92-.39-1.89-.7-2.79-1.14a6.21,6.21,0,0,1-3.18-3.74,15.55,15.55,0,0,1-1-5.56,16.47,16.47,0,0,1,.76-4.11,27.27,27.27,0,0,1,2.48-6.43A18.64,18.64,0,0,1,10.42,17a30,30,0,0,1,3.14-2.59,39,39,0,0,1,7.38-3.8c.13-.05.22-.18.38-.18.49.21.5.26.13.61-1.68.81-3.41,1.52-5,2.44a26.94,26.94,0,0,0-5.34,3.85,20.92,20.92,0,0,0-4,4.66,24.14,24.14,0,0,0-2.32,5.76,18.84,18.84,0,0,0-.9,4,12.05,12.05,0,0,0,.53,4.54c.19.53.31,1.07.49,1.61a5.3,5.3,0,0,0,3,3.27,34.51,34.51,0,0,0,3.54,1.37,7.81,7.81,0,0,0,3,0c.23,0,.38-.22.55-.38a6.41,6.41,0,0,1,1.1-.91c.58-.33.81-.25,1,.38s.43,1.22.62,1.83a.75.75,0,0,0,.94.58c1.13-.13,2.26-.25,3.4-.34a22.45,22.45,0,0,1,3.48,0,21.53,21.53,0,0,0,5.38-.32,11,11,0,0,0,3-1.34,8.75,8.75,0,0,0,2.54-2.23c.33-.4.83-.61,1.2-1a21.21,21.21,0,0,0,1.79-2.44c.49-.66,1-1.28,1.47-2,.7-1.1,1.4-2.2,2.07-3.32a1.41,1.41,0,0,1,.62-.68c.34,0,.55.18.49.48s-.14,1-.5,1.29A1.47,1.47,0,0,0,43,33.78Z"/><path class="b" d="M21.45,11c.39-.28-.05-.35-.13-.51a3,3,0,0,1,1.12-.37c.1.07.18.2.32.17a5.19,5.19,0,0,0,2-.71.25.25,0,0,0,.07-.33,6.18,6.18,0,0,1,1.64-.73,1.13,1.13,0,0,0,1-.29,26.75,26.75,0,0,1,4.12-1.33c.08.82-.15,1-.93.68-.14-.06-.25-.07-.34,0C29.66,8.27,28.7,8.4,28,9s-1.73.52-2.53.94a4.16,4.16,0,0,0-1,.58.89.89,0,0,0,0,1.28.91.91,0,0,0,1.22.26,4.38,4.38,0,0,1,1.37-.44,20.66,20.66,0,0,0,2.47-1,2.72,2.72,0,0,1,1.24-.32,4.56,4.56,0,0,0,2.41-.62c.12-.06.27-.21.38,0a.32.32,0,0,1-.06.4.8.8,0,0,0,0,1.33c.22.21,0,.59.33.77.06.26-.16.36-.31.48-1,.77-2,1.33-3,2-.17-.12-.34-.2-.53,0a.66.66,0,0,1-.55.2,1.69,1.69,0,0,0-.92.05.92.92,0,0,1-1.15-.49.94.94,0,0,1,.15-1.2c.15-.17.42-.27.46-.69a15.18,15.18,0,0,1-2.26.73c-1.3.28-2.55.69-3.83,1A1.73,1.73,0,0,1,20,13a1.81,1.81,0,0,1,.83-1.52A4.36,4.36,0,0,1,21.45,11Z"/><path class="b" d="M43,33.78c-.38-.78-.28-.94.43-1.56A2.68,2.68,0,0,0,44,30.81c0-.17-.17-.25-.35-.27-.22-.3,0-.55.11-.8a18.6,18.6,0,0,0,2.11-6.27c0-.17,0-.4.27-.4.29.51.57.1.86,0a4.21,4.21,0,0,1-.33,1.86,42.69,42.69,0,0,1-1.93,5.61C44.23,31.66,43.58,32.7,43,33.78Z"/><path class="a" d="M24.8,9.23c.12,0,.27,0,.33.11s-.06.18-.14.24a5.67,5.67,0,0,1-2.34.89c-.32.07-.32-.15-.21-.37Z"/><path class="a" d="M27.43,8.21c-.38.51-.67.6-1,.29A2.42,2.42,0,0,1,27.43,8.21Z"/><path class="c" d="M46.12,23.07c-.19.89-.39,1.79-.59,2.69a17,17,0,0,1-1.61,4,1.53,1.53,0,0,0-.29.8c-.66.77-1,1.72-1.6,2.53s-1.16,2-1.89,2.84a19.36,19.36,0,0,0-1.64,2.31,2.74,2.74,0,0,1-.88.91,11.27,11.27,0,0,0-2.22,2.08,12.22,12.22,0,0,1-2.66,1.67,9.78,9.78,0,0,1-4.33,1c-1.88.18-3.74-.19-5.6-.1a16.8,16.8,0,0,0-3.31.32,3.58,3.58,0,0,1-1.08.11c-.34,0-.66,0-.79-.53-.17-.72-.53-1.39-.69-2.12-.11-.45-.36-.44-.67-.27a4.85,4.85,0,0,0-1.22,1,1,1,0,0,1-.67.4,6.68,6.68,0,0,1-4-.38c-1-.54-2.13-.75-3.13-1.32a5.92,5.92,0,0,1-2.73-3.69,17.84,17.84,0,0,1-.79-3.65A10.86,10.86,0,0,1,4,29.77a41,41,0,0,1,1.69-5.31A17.73,17.73,0,0,1,9.11,19.1a30.54,30.54,0,0,1,4.77-4.18A26,26,0,0,1,19,12.1a21.56,21.56,0,0,0,2-1,.9.9,0,0,1,.42-.1c-.4.54-1.08.84-1.29,1.55-.11.38.35,1.46.74,1.55a3.41,3.41,0,0,0,1.84-.1,13.17,13.17,0,0,1,2.54-.67,9.1,9.1,0,0,0,2.2-.71,1.13,1.13,0,0,1,.47-.12c.14,0,.31,0,.38.13s-.1.27-.18.37a2.35,2.35,0,0,1-.37.33.77.77,0,0,0-.24,1.09c.24.36.56.66,1.08.41a.87.87,0,0,1,.93,0c.07.24-.13.34-.27.44-1.32,1-2.46,2.22-3.67,3.35-.48.44-.8,1-1.25,1.47,1-1.21,2.26-2.21,3.39-3.32a21.77,21.77,0,0,1,2.33-2c.14-.09.28-.19.46-.11a11.75,11.75,0,0,1,2.33-1.63,12.4,12.4,0,0,0,1-.85,1.92,1.92,0,0,0,.92-.61,9.15,9.15,0,0,1,1.48-1.22c.12-.1.22-.34.39-.21a.58.58,0,0,1,.17.5c-.26.71.39,1,.58,1.55,0,.14.22.08.33.11a19.16,19.16,0,0,0,3.12.29,1.14,1.14,0,0,1,1,.73,8.26,8.26,0,0,0,1.7,2.46c.31.38.68.29,1.07.1s.31-.45.18-.76a2.12,2.12,0,0,1-.21-1c.3,0,.36.21.44.41A28.8,28.8,0,0,1,46.34,20,12.13,12.13,0,0,1,46.12,23.07Z"/><path class="a" d="M30.54,14.71A14.71,14.71,0,0,0,27.76,17a7.65,7.65,0,0,1-.74.65c-1,.87-1.91,1.87-2.89,2.89a.81.81,0,0,1,.25-.75,34.84,34.84,0,0,1,3.19-3.24c.63-.62,1.39-1.08,2-1.74.26,0,.38-.22.55-.36S30.55,14.35,30.54,14.71Z"/><path class="d" d="M29.61,11.5c.09,0,.16.06.14.15s-.05.27-.22.26-.1-.11-.1-.2A.19.19,0,0,1,29.61,11.5Z"/></svg>