<svg xmlns="http://www.w3.org/2000/svg" viewBox="0 0 50 50"><defs><style>.a{fill:#dc9ea5;}.b{fill:#edd0d3;}.c{fill:#e1b3b8;}</style></defs><path class="a" d="M30.44,5.5a9.62,9.62,0,0,1,4.95,1A8.52,8.52,0,0,1,38.31,9a9.65,9.65,0,0,1,2,3.46,11.23,11.23,0,0,1,.3,3.16,7.86,7.86,0,0,0,0,1.68,7.1,7.1,0,0,1,0,1.66,2.82,2.82,0,0,0,1,2,18.76,18.76,0,0,1,1.48,2C44,24.25,45.09,25.53,46,27a9.59,9.59,0,0,1,1.55,4.49c.07,1.13.29,2.24.26,3.38a6.32,6.32,0,0,1-.11,1.57A20.8,20.8,0,0,1,46.77,39c-.25.62-.52,1.29-1.43,1.1-.08,0-.19.07-.28.12a14.47,14.47,0,0,1-4.45,1.51,10.73,10.73,0,0,1-5.35-.39c-1.44-.46-2.86-1-4.29-1.42a20.63,20.63,0,0,1-2.91-1.23c-1.75-.88-3.5-1.74-5.32-2.49a43.62,43.62,0,0,0-6.54-1.88c-1.69-.41-3.38-.89-5.09-1.21A32.49,32.49,0,0,0,6,32.39,32.23,32.23,0,0,1,2.77,32c-.45-.07-.56-.42-.35-.83a1.58,1.58,0,0,1,1-.81A6.38,6.38,0,0,0,6.75,27.9a30.09,30.09,0,0,0,2.48-4.74c1.09-2.27,1.8-4.73,3.25-6.83a26.5,26.5,0,0,1,2.78-3.68,24.9,24.9,0,0,1,4.61-3.48A36.51,36.51,0,0,1,23.74,7a13.55,13.55,0,0,1,4.15-1.29A15.71,15.71,0,0,1,30.44,5.5Z"/><path class="b" d="M11.47,20.08a3.82,3.82,0,0,1,.58-1.5,30.89,30.89,0,0,1,3.58-5.19,15.74,15.74,0,0,1,2.19-1.88,36.56,36.56,0,0,1,4.11-2.67A17.46,17.46,0,0,1,27.8,6.5a11,11,0,0,1,4.47-.15,10.5,10.5,0,0,1,3.46,1.27c1.59,1,2.46,2.52,3.56,3.88a3.64,3.64,0,0,1,.6,2.24c0,1.15,0,2.31,0,3.46A2.07,2.07,0,0,1,38.57,17a1.09,1.09,0,0,0-1.38.33.77.77,0,0,1-1,.22,10.2,10.2,0,0,0-7.47-.14,18.1,18.1,0,0,0-4.07,1.68c-.29.18-.69.29-.56.77a.88.88,0,0,0,1,.59c.91-.16,1.82-.23,2.72-.36.62-.09,1.24,0,1.86-.13a20.52,20.52,0,0,1,5.75-.32,7.67,7.67,0,0,1,1.17.17,2,2,0,0,0,1.67-.24A4.3,4.3,0,0,1,40.78,21a62,62,0,0,1,3.85,5.29A9.41,9.41,0,0,1,46.54,31c.14,1.61.35,3.2.34,4.81a3.92,3.92,0,0,1-2.68,4,16.37,16.37,0,0,1-5.65,1.33,7.7,7.7,0,0,1-2.12-.3c-1.7-.46-3.41-.89-5.05-1.51A38.29,38.29,0,0,1,26.3,37a28.15,28.15,0,0,0-3.39-1.46,48.26,48.26,0,0,0-6.19-1.84c0-1.22-.88-1.78-1.85-2.24a2,2,0,0,1-1-2.21c.07-.22.1-.45.17-.67a1.06,1.06,0,0,0-.59-1.47c-.19-.09-.39-.15-.57-.25a.79.79,0,0,1-.46-1.08,15.26,15.26,0,0,1,1.16-2.81,1.39,1.39,0,0,0-.7-1.88A4.86,4.86,0,0,1,11.47,20.08Z"/><path class="c" d="M11.47,20.08c.75.14,1.17.87,1.94,1,.35.06.61,1.56.39,1.84a11.92,11.92,0,0,0-1.28,3c-.15.35.08.66.5.79a2.44,2.44,0,0,1,1,.6c.73.73,0,1.38-.09,2a1.33,1.33,0,0,0,.23,1.17,4.58,4.58,0,0,0,1.69,1.28,1.61,1.61,0,0,1,.83,1.87c-1.1-.25-2.21-.49-3.31-.75-.57-.14-1.16-.27-1.73-.42a20.73,20.73,0,0,0-2.33-.43,2.92,2.92,0,0,1-2.14-1.29c-.15-.22,0-.33.12-.46.46-.35.92-.7,1.37-1.06a3.05,3.05,0,0,0,.44-.44.32.32,0,0,0,0-.45.35.35,0,0,0-.45-.1,1.87,1.87,0,0,0-.48.27,1.49,1.49,0,0,1-1.41.52,15.58,15.58,0,0,0,1.48-2.13c.49-1.16,1.1-2.26,1.62-3.41s.9-2.19,1.38-3.27C11.32,20.17,11.41,20.13,11.47,20.08Z"/><path class="c" d="M38.28,19.58a.91.91,0,0,1-1.18.5,21.06,21.06,0,0,0-3.79-.36A7.05,7.05,0,0,0,31,20a7.51,7.51,0,0,1-1.84.18,24.88,24.88,0,0,0-4,.47,1.12,1.12,0,0,1-1.29-.88.52.52,0,0,1,.3-.61,18.71,18.71,0,0,1,7.43-2.53,7.5,7.5,0,0,1,4.63.76.62.62,0,0,0,1-.25c.3-.6.84-.53,1.28-.38a14.6,14.6,0,0,1,1.47.43c.07.76.12,1.52.22,2.28,0,.36-.09.35-.34.23a12.79,12.79,0,0,0-3.36-1,19.92,19.92,0,0,0-5.92-.26,30.6,30.6,0,0,0-4.56.78c-.25.07-.5.17-.76.25s-.25.09-.19.24.2.11.32.07a20.22,20.22,0,0,1,2.77-.64A20.66,20.66,0,0,1,38.28,19.58Z"/></svg>