<svg xmlns="http://www.w3.org/2000/svg" viewBox="0 0 50 50"><defs><style>.a{fill:#e1b4b9;}.b{fill:#dc9ea5;}.c{fill:#db9da4;}.d{fill:#db9ca3;}.e{fill:#edd0d3;}.f{fill:#e1b3b8;}</style></defs><path class="a" d="M40.5,41.89c-.28-.1-.59-.18-.5-.6C40.26,41.42,40.49,41.56,40.5,41.89Z"/><path class="b" d="M37.16,38.38,40,41.29a2.9,2.9,0,0,0,.5.6A32,32,0,0,0,45,45c.1.06.26.09.19.25s-.19.29-.33.2c-.82-.5-1.47.1-2.17.31a31.26,31.26,0,0,1-3,.94,17.26,17.26,0,0,0-2.1.33,15.78,15.78,0,0,1-2.43.82,19.23,19.23,0,0,1-4.22.09,44.14,44.14,0,0,1-6.66-1.14c-1.46-.36-2.9-.82-4.32-1.31a16.54,16.54,0,0,0-3-1,6.39,6.39,0,0,1-2.29-1,11.75,11.75,0,0,1-3-2,19.43,19.43,0,0,1-3.5-4.89c-.36-.83-1-1.5-1.36-2.31a22.53,22.53,0,0,1-1.09-2.52,22.78,22.78,0,0,1-.93-3.61A23.88,23.88,0,0,1,4.46,24a33.3,33.3,0,0,1,.37-4.36C5,18.3,5,17,5,15.6A18.65,18.65,0,0,1,6.53,9,29.34,29.34,0,0,1,8.39,5.54a7.34,7.34,0,0,1,1.75-1.9A2.86,2.86,0,0,0,10.8,3a2.4,2.4,0,0,1,2-.83,3.58,3.58,0,0,1,2.39,1.66c.5.74,1.06,1.42,1.6,2.12a22.55,22.55,0,0,1,1.89,3.23,30.34,30.34,0,0,0,1.49,2.74,18.83,18.83,0,0,1,1.4,3.1,21.28,21.28,0,0,0,4.87,7,20.72,20.72,0,0,1,4.62,6.51c.05.31-.13.42-.4.45a3.71,3.71,0,0,1-.91-1.52,20.47,20.47,0,0,0-4.06-5.32,28.49,28.49,0,0,1-2.1-2.29A20.64,20.64,0,0,1,21,15.39c-.71-1.65-1.62-3.18-2.44-4.76-.26-.5-.54-1-.77-1.49a9.48,9.48,0,0,0-3.38-3.75,8,8,0,0,1-1-.78c-.41-.42-.54-.35-1,0a4.27,4.27,0,0,0-1.32,2.8,18.52,18.52,0,0,0-.51,4.81,27.69,27.69,0,0,1-.28,4,20.52,20.52,0,0,0,.42,4.07,14.69,14.69,0,0,0,.51,2.18,37.91,37.91,0,0,1,.83,4.72c.1.54.43,1.05.27,1.64A.4.4,0,0,1,12,29a.57.57,0,0,1-.32-.49,13.8,13.8,0,0,0-.44-1.82,25.6,25.6,0,0,0-1-5.21,38.92,38.92,0,0,1-.59-4.16c0-1.82.41-3.61.28-5.44a26.42,26.42,0,0,1,.63-5c-.91,1.72-2,3.25-2.26,5.15-.25,1.55-.46,3.08-.58,4.65s-.41,3.16-.53,4.75c-.1,1.42-.17,2.84-.14,4.28,0,1.7.47,3.34.66,5a5.26,5.26,0,0,0,.73,1.84c.53,1,.88,2.14,1.4,3.17a22.15,22.15,0,0,0,3,4.76,11.45,11.45,0,0,0,4.39,2.83c.51.21.92.58,1.43.75,1.28.41,2.54.9,3.84,1.25a51.57,51.57,0,0,0,7.69,1.54,14.79,14.79,0,0,0,5,0c.41-.18.86,0,1.19-.14a4.17,4.17,0,0,1-1.15,0c-.17,0-.37,0-.38-.25s.22-.27.4-.28a11.28,11.28,0,0,1,1.3,0,10.88,10.88,0,0,0,2.28-.3c.2,0,.42-.06.53-.3a18.89,18.89,0,0,0-5-.94A10,10,0,0,1,29.7,43.3a34.42,34.42,0,0,1-7.55-5.53,2.67,2.67,0,0,1-.42-.47c-.07-.12-.15-.26,0-.39a.32.32,0,0,1,.4,0,1.7,1.7,0,0,1,.3.23,52.72,52.72,0,0,0,7.16,5.26A11.34,11.34,0,0,0,35,43.85c1.21,0,2.4.15,3.61.12.44,0,.9-.23,1.41.15,0,0,0-.17-.05-.1s0,0-.07,0a.29.29,0,0,1-.1-.43.48.48,0,0,1,.61-.16c.52.21,1.07.33,1.61.49-.78-.62-1.6-1.19-2.36-1.83a3,3,0,0,1-1-1.19c-.17-.45-.64-.69-1-1a2.47,2.47,0,0,1-.75-1A.51.51,0,0,1,37.16,38.38Z"/><path class="c" d="M37.16,38.38,37,38.9c-.31.07-.46-.17-.61-.34a19.6,19.6,0,0,1-2.51-3.36c-.55-1-1.19-1.89-1.73-2.86-.11-.21-.29-.41-.17-.68a.61.61,0,0,1,.51-.17c.45.32.52.86.75,1.31A27.63,27.63,0,0,0,37.16,38.38Z"/><path class="d" d="M32.53,31.54a.77.77,0,0,1-.49.13H32a5.51,5.51,0,0,1-1.31-2.75.82.82,0,0,0,.39-.41l.1,0c.39.77.82,1.52,1.19,2.3C32.46,31.07,32.65,31.27,32.53,31.54Z"/><path class="e" d="M32.53,31.54c-.39-.78-.77-1.57-1.16-2.35a1.19,1.19,0,0,1-.21-.63A3.06,3.06,0,0,1,32,29.67a9.08,9.08,0,0,1,1.26,3.13A6.13,6.13,0,0,1,32.53,31.54Z"/><path class="f" d="M30.67,28.93A17.52,17.52,0,0,0,32,31.67a16.68,16.68,0,0,0,1.38,2.48A29.28,29.28,0,0,0,35.31,37,8.91,8.91,0,0,0,37,38.9a7.69,7.69,0,0,0,.86,1A3.54,3.54,0,0,1,39,41.24c.2.59.93.91,1.45,1.31s1.31,1,2.11,1.59a8,8,0,0,1-1.87-.41c-.14,0-.26-.14-.4-.19s-.4-.06-.48.15.11.27.28.32.13.08.19.11a39.24,39.24,0,0,1-7.51-.36,13.4,13.4,0,0,1-5.2-2.42c-1.54-1.09-3-2.29-4.53-3.45a5.13,5.13,0,0,1-.91-.83c-.09-.12-.24-.23-.37-.09s0,.22.11.31a22.28,22.28,0,0,0,3.33,2.88c.78.56,1.54,1.16,2.35,1.7a12.61,12.61,0,0,0,7,2.53,15.51,15.51,0,0,1,4.26.76,4.68,4.68,0,0,0,.54.1c.11,0,.28-.06.31.1a.35.35,0,0,1-.2.42,5.68,5.68,0,0,1-.7.22,12.82,12.82,0,0,1-3.15.26,1.15,1.15,0,0,0-.79.18l2,.2c-.47.38-1,.12-1.51.36-1.07-.05-2.13-.21-3.19-.19a26.6,26.6,0,0,1-3.58-.31,8.86,8.86,0,0,1-2.89-1.26,18.55,18.55,0,0,1-3.26-2.54,16.66,16.66,0,0,0-1.65-1.21,5.72,5.72,0,0,1-1.81-2,.81.81,0,0,1-.14-.76c.24-.23.37,0,.5.14a25.78,25.78,0,0,1,1.89,1.88,1.92,1.92,0,0,0-.58-.82q-1.8-1.72-3.51-3.52a19.79,19.79,0,0,1-4.47-6.59,1.83,1.83,0,0,1-.24-1,30.9,30.9,0,0,1-.67-3.45c-.29-2.62-1.29-5.11-1.46-7.75a12.32,12.32,0,0,1,.19-3.32,5.66,5.66,0,0,0,.06-1.36,24.4,24.4,0,0,1,.91-7.16c.19-.71.88-1.12,1.38-1.63.22-.22.58,0,.7.22.51.74,1.36,1,2,1.6a8.54,8.54,0,0,1,2,2.23c1.08,2.13,2.4,4.14,3.32,6.35.57,1.37,1.35,2.6,2,3.9a11,11,0,0,0,2,2.53c1.24,1.27,2.46,2.55,3.59,3.92a21.39,21.39,0,0,1,1.44,2.37A15.64,15.64,0,0,1,30.67,28.93Z"/><path class="e" d="M18.83,38.65c0,.66.44,1.08.77,1.57.56.87,1.52,1.25,2.27,1.89.6.52,1.22,1,1.81,1.53a14.58,14.58,0,0,0,3.2,2.09,9.89,9.89,0,0,0,4.6.87,28.35,28.35,0,0,0,3.57.16c.16,0,.22.09.23.23a11.51,11.51,0,0,1-3.1.2,36.48,36.48,0,0,1-6.25-.89,36.41,36.41,0,0,1-5.88-1.65,10.42,10.42,0,0,1-1.64-.52c-1.39-.86-3-1.29-4.32-2.28a10.84,10.84,0,0,1-2-2A22.79,22.79,0,0,1,9.2,34.67c-.44-1.05-.94-2.07-1.44-3.1a8.78,8.78,0,0,1-.37-2A12.78,12.78,0,0,1,6.94,26c0-.6-.13-1.22-.09-1.84.11-1.51.21-3,.35-4.54a29.39,29.39,0,0,0,.42-4.39,4.69,4.69,0,0,1,.22-1.43C8,13.19,8,12.58,8.13,12a7.6,7.6,0,0,1,.6-2,28.48,28.48,0,0,1,1.71-3.23c.07-.1,0-.34.27-.21s.08.24,0,.38a20.68,20.68,0,0,0-.65,4.76A2.91,2.91,0,0,0,10,13.18c0,1.13-.27,2.24-.29,3.37,0,.26.07.52.05.79.19,1.37.51,2.72.62,4.11.06.64,0,1.29,0,1.94a10,10,0,0,0,1,3.3c.34.7.3,1.52.63,2.23.32.27.29.68.43,1a18.82,18.82,0,0,0,3.23,5.13,40.36,40.36,0,0,0,3,3.17C18.72,38.34,18.88,38.44,18.83,38.65Z"/><path class="c" d="M18.83,38.65a28.51,28.51,0,0,1-5.77-7A8.35,8.35,0,0,1,12,28.92l.37-.12A25.38,25.38,0,0,0,14,32.3a25.92,25.92,0,0,0,2.19,2.9c1.43,1.69,3.07,3.18,4.63,4.74a2.55,2.55,0,0,1,.56.82c0,.09.1.2,0,.28s-.22,0-.3-.11A27,27,0,0,0,18.83,38.65Z"/><path class="f" d="M11.35,26.69a4.79,4.79,0,0,1-1-2.46c-.14-.53,0-1.11-.19-1.65s.26-.73.24-1.13a10.45,10.45,0,0,1,.73,2.91A12.14,12.14,0,0,1,11.35,26.69Z"/><path class="f" d="M9.74,17.34c-.52-.52-.14-1.12-.09-1.64.1-1.13.14-2.26.21-3.39,0-.23,0-.46.24-.59a23.49,23.49,0,0,1-.27,4.36C9.79,16.5,10,16.94,9.74,17.34Z"/><path class="e" d="M43.6,44.76a1.47,1.47,0,0,1-1.15.34C42.79,44.94,43,44.33,43.6,44.76Z"/></svg>