<svg xmlns="http://www.w3.org/2000/svg" viewBox="0 0 50 50"><defs><style>.a{fill:#dc9ea5;}.b{fill:#edd0d3;}.c{fill:#e1b3b8;}</style></defs><path class="a" d="M44.85,25.3a15.82,15.82,0,0,0-4.31.82l-5.42,1.49A21.87,21.87,0,0,0,31.53,29a24.25,24.25,0,0,1-6,1.93,22.41,22.41,0,0,1-2.45.43,18.59,18.59,0,0,1-5.21-.32,44.44,44.44,0,0,1-4.8-1.23,8.91,8.91,0,0,1-2.87-1.77c-1.47-1.27-3-2.46-4.48-3.71-.78-.66-1.71-1.07-2.44-1.79A6.08,6.08,0,0,1,2.09,21c-.15-.29.2-.52.28-.45.28.22.68,0,.89.28a2.12,2.12,0,0,0,2,.7,18.76,18.76,0,0,1,2.5.14c1.35.11,2.69.07,4,.07,2.55,0,5.1,0,7.64-.15,1.37-.09,2.75-.09,4.13-.16,1.15-.06,2.34.07,3.51.07,2.1,0,4.21-.09,6.31,0a18.34,18.34,0,0,1,4.94,1,39.45,39.45,0,0,0,7.43,1.87c.42.06.85,0,1.27.12a.41.41,0,0,1,.39.4c0,.23-.25.31-.4.3A20.56,20.56,0,0,1,44.85,25.3Z"/><path class="b" d="M34.79,27.06a19.45,19.45,0,0,1-2.5,1.05,25,25,0,0,1-5.2,2,21.67,21.67,0,0,1-5.67.85A30.15,30.15,0,0,1,16,30.14a16.37,16.37,0,0,1-4-1.34,7.28,7.28,0,0,1-1.82-1.36c-1-1.06-2.3-1.81-3.38-2.81a16.36,16.36,0,0,1-1.62-1.81,1.89,1.89,0,0,0-.84-.68,16.12,16.12,0,0,1,3.05.08,34.46,34.46,0,0,0,4.19,0c1.19-.07,2.39-.07,3.59-.06,2,0,4-.16,6-.21,1.82,0,3.65-.09,5.48,0,.86,0,1.73,0,2.6,0h3.41c.18.28-.06.41-.21.57a9.44,9.44,0,0,0-1.17,1.36c-.38.63-.31.88.34,1.2a1.37,1.37,0,0,1,.69.59.79.79,0,0,0,.54.38,12.31,12.31,0,0,0,1.76.73A.22.22,0,0,1,34.79,27.06Z"/><path class="c" d="M34.79,27.06c-.69-.29-1.37-.61-2.06-.86-.2-.08-.45-.11-.5-.31-.14-.58-.64-.66-1.06-.82s-.32-.18-.29-.48c.1-1,.87-1.5,1.44-2.15.13-.15.34-.24.34-.49A20.69,20.69,0,0,1,39,23.29a21.17,21.17,0,0,0,3.19.89,10.56,10.56,0,0,0,1.9.47,4.38,4.38,0,0,1-1.43.37,49.61,49.61,0,0,0-5.26,1.39A15.12,15.12,0,0,1,34.79,27.06Z"/></svg>