<svg xmlns="http://www.w3.org/2000/svg" viewBox="0 0 50 50"><defs><style>.a{fill:#e1b3b8;}.b{fill:#dc9ea5;}.c{fill:#edd0d3;}</style></defs><path class="a" d="M47.73,45.12v.64a.54.54,0,0,1-.63.12,28.26,28.26,0,0,0-9.39-1.53c-1.94,0-3.89-.14-5.83-.17A2.65,2.65,0,0,1,30.66,44a10.2,10.2,0,0,1-1.13-1.24c-.25-.26-.18-.5,0-.78A2.54,2.54,0,0,1,32,40.7,1.75,1.75,0,0,0,33.56,40a1.72,1.72,0,0,1,1.87-.36c.83.22,1.48-.26,2.23-.36.27,0,.2-.28.09-.44-.45-.65-.14-1.23.17-1.8s.5-.47.85-.15a7.47,7.47,0,0,1,1.85,2.32.77.77,0,0,0,.19.31c.23.19.54.41.77.26s0-.47-.13-.66a9.15,9.15,0,0,1-1.51-3.78c-.68-.79-.41-1.82-.68-2.72a2.25,2.25,0,0,0-.58-1.07.91.91,0,0,1-.33-1c.38-.14.5.21.67.4a16,16,0,0,1,1.35,1.7c.72,1.09,1.54,2.11,2.33,3.15a16.86,16.86,0,0,1,1.42,2.33,37.38,37.38,0,0,1,2.3,5.13,38.21,38.21,0,0,0-3-6.6,15.12,15.12,0,0,0-1.29-1.9,17.24,17.24,0,0,1-1.43-2,25.58,25.58,0,0,0-2-2.55,1.1,1.1,0,0,1-.38-.75,1.39,1.39,0,0,1,2.54.28,2.09,2.09,0,0,0,.71,1.06.71.71,0,0,1,.22.84,1.57,1.57,0,0,0,1.45,1.72c.74,0,1,.19,1.42,1.24a2.13,2.13,0,0,1,.44-1.17c.19-.29.43-.52.81-.28a8.26,8.26,0,0,1,.34,2.51A15.56,15.56,0,0,0,47,40.94a9.07,9.07,0,0,1,.46,3.19A1.6,1.6,0,0,0,47.73,45.12Z"/><path class="b" d="M30.67,43.88A14.11,14.11,0,0,0,33.5,44c1.33.07,2.67.1,4,.15l2.34.08a17.3,17.3,0,0,1,4.8.75,13.22,13.22,0,0,1,2.61.76c.12.07.31,0,.48,0a3.41,3.41,0,0,1,.38.38.43.43,0,0,1,0,.62c-.18.21-.28,0-.4-.11a18.39,18.39,0,0,0-6.42-1.77c-1.8-.22-3.61-.21-5.42-.31-1.45-.08-2.92,0-4.37-.09-1.16,0-2.31-.24-3.46-.38a11.12,11.12,0,0,0-2.08,0,23.48,23.48,0,0,1-3.75-.13,28.66,28.66,0,0,1-5-.56c-.65-.17-1.28-.37-1.92-.6-1.42-.53-2.85-1.05-4.25-1.67a6.86,6.86,0,0,1-2.82-2.52,16.31,16.31,0,0,1-1.66-2.67,37.51,37.51,0,0,1-2.21-6c-.26-1.11-.71-2.18-1-3.29a18,18,0,0,1-.45-2.9A53.06,53.06,0,0,1,2.73,18a7.16,7.16,0,0,1,.65-2.3c.77-2.22,2.42-3.75,4.12-5.27s3.4-1.15,5.22-.58a18.34,18.34,0,0,1,3,1l1.64.83a10.43,10.43,0,0,1,.5-3.49,6,6,0,0,1,5.79-4.67c.58,0,1.15-.08,1.73-.13A8.34,8.34,0,0,1,32.15,6a59.52,59.52,0,0,0,4.78,4.35,31.18,31.18,0,0,1,2.75,2.37,15.88,15.88,0,0,1,2.18,3.42,19.53,19.53,0,0,1,2.06,4.33,44.9,44.9,0,0,1,1,4.38c.26,1.43.66,2.83,1,4.24a13.24,13.24,0,0,1,.3,2.51c0,1.24.33,2.44.44,3.66.07.69.06,1.38.08,2.06s.19,1.41.14,2.13a16.06,16.06,0,0,1,.85,5.71c-.28-.12-.51-.26-.48-.63a14.14,14.14,0,0,0-.79-4.78,7,7,0,0,1-.32-2.06,32.12,32.12,0,0,0-.27-4.49c-.31-.15-.27-.44-.28-.7a20.32,20.32,0,0,0-.8-5.08c-.48-1.82-.86-3.68-1.24-5.53A15.63,15.63,0,0,0,42.09,18c-.59-1.19-1.27-2.33-2-3.47a9.68,9.68,0,0,0-2.56-2.77A78.39,78.39,0,0,1,31.15,6a7,7,0,0,0-5.68-2,19.32,19.32,0,0,0-3,.3,5.45,5.45,0,0,0-4,4,11.72,11.72,0,0,0-.59,3.11c0,.64-.47.9-1.08.69-.31-.11-.58-.32-.89-.45a33.81,33.81,0,0,0-5.11-1.55,2.77,2.77,0,0,0-2.19.45A7.16,7.16,0,0,0,6.84,12c-.35.38-.73.73-1.09,1.11a8.46,8.46,0,0,0-2.3,5.12,35,35,0,0,0,.1,5.22A31.56,31.56,0,0,0,5,29.64c.56,2,1.37,4,2.12,5.91a5.62,5.62,0,0,0,.71,1.24c.91,1.27,1.6,2.77,3.1,3.5A26.23,26.23,0,0,0,18.68,43a35.81,35.81,0,0,0,7.25.41,17.69,17.69,0,0,1,3.91.24A1.89,1.89,0,0,1,30.67,43.88Z"/><path class="c" d="M30.67,43.88a21.4,21.4,0,0,0-3.18-.31c-2.33.09-4.65-.06-7-.19A18.39,18.39,0,0,1,14.65,42c-1-.42-2.08-.78-3.12-1.19a7.62,7.62,0,0,1-3.18-2.91,23.83,23.83,0,0,1-3.26-7.28c-.41-1.34-.92-2.64-1.22-4A28.85,28.85,0,0,1,3.26,20a8.19,8.19,0,0,1,.24-3.08c.57-1.45,1-3,2.27-4.06.56-.48,1.05-1,1.57-1.57A4.07,4.07,0,0,1,12,10.25c1.2.44,2.46.63,3.64,1.15.37.17.69.42,1.08.56.7.25.88.12,1-.6A10.91,10.91,0,0,1,19,6.65,4.94,4.94,0,0,1,21.9,4.29a13.08,13.08,0,0,1,6.94,0A6.07,6.07,0,0,1,31.1,5.75c1.22,1.13,2.38,2.33,3.61,3.46s2.31,1.9,3.45,2.87a9.4,9.4,0,0,1,2.14,2.44c.61,1,1.19,2.11,1.79,3.16A19.66,19.66,0,0,1,44,23c.42,1.72.68,3.48,1.2,5.18a13.38,13.38,0,0,1,.55,4.09,1.58,1.58,0,0,0,.12.91c-.6.26-.6.26-1.11,2-.28-.22-.29-.55-.39-.82a.88.88,0,0,0-1.18-.67.63.63,0,0,1-.69-.17c-.32-.4-.64-.8-.93-1.22-.12-.17,0-.35.07-.52a.5.5,0,0,0-.24-.81.89.89,0,0,1-.5-.66c-.31-1.46-1.47-1.59-2.5-.7-.21.06-.31-.09-.41-.22-.85-1-1.72-2.06-2.62-3.07A25.78,25.78,0,0,0,30.5,22c-.89-.61-1.76-1.25-2.7-1.78a6.8,6.8,0,0,0-2.29-1,35.25,35.25,0,0,1,5.38,3.37A28,28,0,0,1,37,28.5c.41.52.87,1,1.24,1.56.09.15.27.26.2.48a1.11,1.11,0,0,0,.39.94,2.17,2.17,0,0,1,.76,1.64c.13.69,0,1.42.5,2.05.25.3.21.83.29,1.24a8.19,8.19,0,0,0,1,2.29c.16.31.34.61.48.93a.4.4,0,0,1,0,.42c-.13.15-.26,0-.4,0a1.48,1.48,0,0,1-1.09-1,7.65,7.65,0,0,0-1.77-2.13c-.14-.13-.25-.1-.38,0a1.89,1.89,0,0,0-.27,1.92c.39.46.16.59-.28.68a2.77,2.77,0,0,0-1.28.39c-.24.18-.48,0-.71,0-.88-.15-1.71-.28-2.32.65-.28.44-.87.25-1.32.37a5,5,0,0,1-.55,0c-.35.05-.88,0-1,.22a12.4,12.4,0,0,1-1,1.16c-.13.19.07.3.17.42Z"/><path class="b" d="M38.4,30.54c-1-1.23-1.93-2.53-3-3.69a32.22,32.22,0,0,0-3-2.9c-1.71-1.4-3.62-2.52-5.42-3.79a5.43,5.43,0,0,0-1.16-.57.9.9,0,0,1-.51-.49,5.57,5.57,0,0,1,2.62,1,37.23,37.23,0,0,1,6.37,4.74,35.71,35.71,0,0,1,2.47,2.74c.55.66,1.08,1.34,1.69,1.95.71.91,1.51,1.76,2.13,2.73.8,1.26,1.79,2.36,2.6,3.61a26.25,26.25,0,0,1,2.25,4.34C46,41.62,46.48,43,47,44.45c-.25.1-.34-.05-.41-.24-.41-1-.78-2-1.23-3-.55-1.2-1.12-2.39-1.75-3.55-1.1-2.07-2.75-3.75-4-5.71A12.27,12.27,0,0,0,38.4,30.54Z"/></svg>