<svg xmlns="http://www.w3.org/2000/svg" viewBox="0 0 50 50"><defs><style>.a{fill:#dc9ea5;}.b{fill:#edd0d3;}.c{fill:#e1b3b8;}.d{fill:#dca1a7;}</style></defs><path class="a" d="M6.9,6.93A2.09,2.09,0,0,1,5.79,5.61c-.12-.57,0-.77.61-.87a23.09,23.09,0,0,1,4.46-.32,29.63,29.63,0,0,1,3.52.17,18.61,18.61,0,0,0,3,.15,13.33,13.33,0,0,1,3.82.62,27.7,27.7,0,0,1,2.8.91,16.55,16.55,0,0,1,2,1.09,26.42,26.42,0,0,1,3.4,2.17,16.8,16.8,0,0,1,3,3.15c.73,1,1.52,1.88,2.19,2.89a33.24,33.24,0,0,1,2.06,3.8c.78,1.61,1.56,3.24,2.32,4.87A27.34,27.34,0,0,0,41.45,28a26.71,26.71,0,0,1,3.17,5.51c.38,1,.79,1.93,1.21,2.88A42.13,42.13,0,0,1,47,40.51c.18.56.27,1.15.44,1.72.09.3.1.6-.2.67s-.28-.28-.34-.48a10.38,10.38,0,0,0-4-5.73,18.83,18.83,0,0,0-4.2-2.12l-4.91-2.08a21.8,21.8,0,0,0-3-1.28c-2.22-.57-4.33-1.55-6.6-1.86a47.43,47.43,0,0,1-5.69-1.17c-1.66-.44-3.3-1-5-1.36a17.33,17.33,0,0,1-3.92-1.35,11.93,11.93,0,0,1-4.92-4.4,7.22,7.22,0,0,1-.79-5.72,29.24,29.24,0,0,0,.56-3.08,7.63,7.63,0,0,0-.35-2.36A6.78,6.78,0,0,0,2.88,7.2c-.45-.62-.26-1,.52-.87C4.57,6.47,5.74,6.72,6.9,6.93Z"/><path class="b" d="M38.65,33.79a10.12,10.12,0,0,1-2.32-.86c-1.36-.56-2.7-1.2-4.08-1.75a61.52,61.52,0,0,0-7.49-2.39c-1.53-.39-3.13-.52-4.67-.87s-3.09-.84-4.64-1.25c-1.14-.3-2.28-.58-3.42-.86a11.56,11.56,0,0,1-3.49-1.66,10.17,10.17,0,0,1-2.7-2.5,6.63,6.63,0,0,1-1.32-6.06A9.68,9.68,0,0,0,5,10.9,9.6,9.6,0,0,0,3.9,7.52,4.5,4.5,0,0,1,3.64,7c1.19.32,2.33.31,3.41.68a2.91,2.91,0,0,0,1.27.21c.13,0,.32,0,.32-.23s-.14-.18-.22-.26A8.13,8.13,0,0,0,6.56,5.92a.53.53,0,0,1-.14-.4c0-.21.22-.13.36-.15a35,35,0,0,1,4.7-.21c1.81.07,3.64.13,5.46.14a15.66,15.66,0,0,1,6.71,1.57A28.63,28.63,0,0,1,28.91,10a27.6,27.6,0,0,1,6.49,8.08c-.13.2-.37.26-.56.38a1.65,1.65,0,0,0-.91,1.17c-.06.46-.3.63-.73.48a3.29,3.29,0,0,1,.41.42,2.77,2.77,0,0,1,.31.56,1.77,1.77,0,0,0,.36.71,3.8,3.8,0,0,1,.9,3.29.53.53,0,0,0,.09.53c.33.34.55.78.91,1.1.53.48.55.84.07,1.38a4.92,4.92,0,0,0-1.2,2.29c-.17.79,0,1,.71,1.34s1.63.9,2.46,1.32C38.49,33.19,38.75,33.41,38.65,33.79Z"/><path class="c" d="M38.65,33.79a1.49,1.49,0,0,0-1.09-.94c-.82-.29-1.44-1-2.31-1.17-.48-.12-.59-.92-.28-1.72A5.25,5.25,0,0,1,36.13,28c.47-.47.4-.75-.1-1.22a13.54,13.54,0,0,1-1-1.22c-.11-.13-.07-.26,0-.41a3.55,3.55,0,0,0-.86-3.31,1.11,1.11,0,0,1-.33-.78.24.24,0,0,1,.28.07,15.77,15.77,0,0,1,2.08,2.8,3.6,3.6,0,0,0,.73,1.26c1,1.42,2,2.87,3,4.32.76,1.12,1.48,2.27,2.27,3.38.66.94,1.08,2,1.69,3,.28.47.6.92,1,1.48a2.53,2.53,0,0,1-1.21-.87,10.67,10.67,0,0,0-4-2.22A2.48,2.48,0,0,1,38.65,33.79Z"/><path class="c" d="M33.53,20.58l-.75-.7.07-.09.45.23c.24.1.45,0,.46-.23.08-1,.78-1.44,1.64-1.71.62,1.54,1.47,3,2.16,4.47a34,34,0,0,0,4.27,7,14.81,14.81,0,0,1,.84,1.23c.12.18.26.32-.13.4-.6.12-.08.58-.26,1-1.82-3-3.88-5.72-5.88-8.5a1.5,1.5,0,0,1-.64-.56A22.5,22.5,0,0,0,33.53,20.58Z"/><path class="d" d="M33.53,20.58c.32,0,.48.22.65.42.75.89,1.48,1.8,2.22,2.69a.44.44,0,0,0-.25.25l-2-2.48a1.18,1.18,0,0,0-.38-.39C33.71,20.9,33.52,20.79,33.53,20.58Z"/><path class="a" d="M31.93,19.1a5.56,5.56,0,0,1-1.77-1.57A30,30,0,0,0,24,12.18a16.85,16.85,0,0,0-7.16-2.8c-.81-.08-1.63-.23-2.46-.23a4.5,4.5,0,0,1,2.35-.25A18.75,18.75,0,0,1,26.19,13a29,29,0,0,1,5.62,5.78S31.86,18.92,31.93,19.1Z"/></svg>