<svg xmlns="http://www.w3.org/2000/svg" viewBox="0 0 50 500"><defs><style>.a{fill:#e1b3b8;}.b{fill:#dc9ea5;}.c{fill:#edd0d3;}.d{fill:#e3b9bd;}.e{fill:#e1b4b9;}.f{fill:#db9da4;}.g{fill:#db9ca3;}.h{fill:#dca1a7;}.i{fill:#dfa5ac;}</style></defs><path class="a" d="M19.3,44.48a42.88,42.88,0,0,0-4.79-.86,3.59,3.59,0,0,1-.84-.22,26,26,0,0,0-3-.67,10.48,10.48,0,0,1-2.43-.95c-.62-.38-1.29-.69-1.92-1.07s-.17-.8-.41-1.14c.3-.18.3-.75.86-.62.11,0,.24-.1.33-.23C7.72,37.86,8.34,37,9,36.18c.27-.34.22-.53-.21-.62a12.44,12.44,0,0,0-2-.48A6.62,6.62,0,0,1,2.61,33c-.15-.14-.31-.27-.47-.4A2.46,2.46,0,0,1,1.27,30c.36-2.82,2.09-4.87,3.84-6.89.79-.92,1.72-1.72,2.59-2.57a.63.63,0,0,0,.74-.13c1.58-1.51,3.44-2.66,5.13-4l1-.83a23.55,23.55,0,0,1,5.45-3,42.76,42.76,0,0,1,4.75-1.84,51.55,51.55,0,0,1,6.14-1.3c1.21-.21,2.42-.41,3.61-.66,1.59-.33,3.2-.5,4.77-.87a12,12,0,0,0,4.21-1.62A2.7,2.7,0,0,1,44.23,6c.56-.18.75-.09.85.5a4.66,4.66,0,0,1,.13,1.49,3.54,3.54,0,0,0,.07,1.17A25.34,25.34,0,0,1,45.11,17a49.44,49.44,0,0,1-.9,5.4A20,20,0,0,1,42.3,27a59,59,0,0,1-3.5,5.74,24.46,24.46,0,0,1-7.9,7.71c-1.71,1-3.41,1.94-5.2,2.79a12.25,12.25,0,0,1-5.89.95C19.53,44.14,19.3,44.12,19.3,44.48Z"/><path class="b" d="M19.3,44.48c-.06-.16-.32-.27-.2-.48s.32,0,.49,0a12.68,12.68,0,0,0,6-.92A38,38,0,0,0,29,41.36c2-1.2,4.09-2.24,5.68-3.93A34,34,0,0,0,39,32.19c1.32-2.13,2.69-4.22,3.81-6.45a20.07,20.07,0,0,0,2-7.25c.12-1.35.41-2.69.52-4a18,18,0,0,0-.13-5.07c-.17-.83,0-1.68-.14-2.52-.14-1-.25-1.1-1.15-.57a10.58,10.58,0,0,1-2.51,1.27,38.91,38.91,0,0,1-4.12.93c-1.38.24-2.76.45-4.12.79-1.15.28-2.36.34-3.53.58a34.23,34.23,0,0,0-6.67,1.72c-2,.84-4,1.69-5.95,2.64a26.94,26.94,0,0,0-4.11,3c-1.28.95-2.61,1.85-3.8,2.92a7.81,7.81,0,0,0-.59.56c-.31.37-.54.29-.74-.1a39.08,39.08,0,0,1,3.51-2.92c1.46-1,2.74-2.3,4.25-3.26a34.39,34.39,0,0,1,4.34-2.16,40.83,40.83,0,0,1,6.45-2.28c1.95-.49,3.94-.76,5.91-1.16,1.69-.33,3.37-.76,5.08-1a39.84,39.84,0,0,0,4.2-.94,9.86,9.86,0,0,0,3-1.45c.08-.06.19-.16.19-.23,0-.23.09-.4.29-.38a.56.56,0,0,1,.47.52c.23,2.19,1.14,4.2,1.58,6.33a22.88,22.88,0,0,0,1.19,3.88,8.84,8.84,0,0,1,.5,2.71,26.24,26.24,0,0,1-.09,5.24A23.64,23.64,0,0,1,47.47,28,27.46,27.46,0,0,1,45,33.41a18.5,18.5,0,0,1-3,4c-.61.56-1.17,1.2-1.78,1.78a13.48,13.48,0,0,1-3.6,2.26,43.61,43.61,0,0,0-4.2,2.14,11.19,11.19,0,0,1-4.25,1.34,25,25,0,0,1-3.1.28,7.7,7.7,0,0,1-2.26-.26C21.66,44.62,20.45,44.74,19.3,44.48Z"/><path class="c" d="M23,44.44a23,23,0,0,0,2.66-.71c1.22-.57,2.39-1.22,3.56-1.86a26.64,26.64,0,0,0,5.25-3.46,27.48,27.48,0,0,0,3-3.32,46.61,46.61,0,0,0,4.32-6.37,41.39,41.39,0,0,0,2.37-4.82,15.47,15.47,0,0,0,.91-3.9c.28-2.41.74-4.8.83-7.23,0-.92,0-1.84,0-2.85a6.56,6.56,0,0,1,.52,1.57,26.7,26.7,0,0,0,1.33,5,15.34,15.34,0,0,1,.43,5.22,19.62,19.62,0,0,1-.82,4.86A30.12,30.12,0,0,1,43.21,35a26.2,26.2,0,0,1-2.58,3.07A14.61,14.61,0,0,1,36,41.13a34.84,34.84,0,0,0-4,2,9.85,9.85,0,0,1-3.81,1.19,25.83,25.83,0,0,1-3.62.27A7,7,0,0,1,23,44.44Z"/><path class="a" d="M38.83,64.63l1.38-.25c0,.17-.19.46.26.36.92-.22,1.86-.19,2.78-.32a4.46,4.46,0,0,1,.63,0c.23,0,.59-.12.65.16s-.31.31-.53.38-.63.24-1,.32c-.8.21-1.54.62-2.32.87A40.34,40.34,0,0,0,33,69.71c-1.41.79-2.82,1.58-4.18,2.45a10.69,10.69,0,0,1-3.45,1.39c-1.56.36-3.14.63-4.68,1a14.76,14.76,0,0,1-4.64.12,20.66,20.66,0,0,1-2.35-.29,8.4,8.4,0,0,1-2.8-1A18.88,18.88,0,0,1,7.7,71.66,4,4,0,0,0,9.56,73c.34.17.76.26.89.71-.28.27-.54.07-.8,0A19.69,19.69,0,0,1,7.29,72.3a6.17,6.17,0,0,1-2.25-2,3.63,3.63,0,0,0-1.65-1.06,1.9,1.9,0,0,1-.52-1.17c-.14-.78.17-1.15,1-1.1.64,0,1.28.11,1.92.18,1.09.14,2.17.34,3.27.4s1.41-.27,1.33-1.38a1.23,1.23,0,0,1,0-.19c-.09-.83.13-1.15,1-1.13s1.92,0,2.86.05c2.41.25,4.84.4,7.23.75a41.53,41.53,0,0,0,8.56.16,18.44,18.44,0,0,1,2.68,0,16,16,0,0,0,4.67-.54,4.21,4.21,0,0,1,.86-.16A.65.65,0,0,0,38.83,64.63Z"/><path class="b" d="M10.42,73.71a7.08,7.08,0,0,0-1.75-1,3.69,3.69,0,0,1-1.29-1.13c-.06-.08-.11-.19,0-.28s.2,0,.27.06c1,1,2.28,1.3,3.41,2a10.56,10.56,0,0,0,4.38,1.12c1.09.12,2.18.14,3.26.21a8.52,8.52,0,0,0,2.25-.35c1.79-.37,3.6-.69,5.37-1.19a11.82,11.82,0,0,0,3.41-1.74c1.72-1.16,3.65-1.93,5.39-3A32,32,0,0,1,40.55,66c1.24-.52,2.51-.94,3.79-1.34,0,0,.08-.07.22-.19-1.43.14-2.75.27-4.06.42-.24,0-.56.25-.69,0s.34-.27.4-.52A25.81,25.81,0,0,1,44.69,64,4.16,4.16,0,0,0,47,63.47c.15-.09.35-.38.56,0s-.08.49-.26.59a5.32,5.32,0,0,0-1.53,1.1,7.58,7.58,0,0,0-1.32,2.37c-.32.91-.79,1.74-1.16,2.63-1,2.49-2.81,4.49-4.34,6.66a35.83,35.83,0,0,1-2.9,3.14,28.26,28.26,0,0,1-3.79,3.38A13.24,13.24,0,0,1,28.89,85a28.58,28.58,0,0,1-6,1.63,19.34,19.34,0,0,1-3.88,0c-2.17-.06-4-1.11-5.9-2a17.68,17.68,0,0,1-3.4-2.33,10,10,0,0,1-1.89-1.85,12.31,12.31,0,0,1-1.39-2.67c-.6-1.55-1.09-3.15-1.79-4.65A33.37,33.37,0,0,0,2.6,68.71c-.54-.83-.14-2,.62-2.08a6.7,6.7,0,0,1,1.55,0c1.44.15,2.86.43,4.31.45,1,0,1-.1.88-1.06a4.5,4.5,0,0,1,0-1,.45.45,0,0,1,.47-.46,33.79,33.79,0,0,1,4.72.1,38.47,38.47,0,0,0,4.28.4,25.93,25.93,0,0,1,3.74.41,30.77,30.77,0,0,0,5.43,0c1.37-.08,2.74-.07,4.12-.06a16.55,16.55,0,0,0,4.59-.51,7.53,7.53,0,0,1,.8-.09c.21,0,.43,0,.52-.22h.23c.23.41,0,.59-.36.65-1.17.23-2.34.42-3.5.72a5.82,5.82,0,0,1-1.82,0,42.27,42.27,0,0,0-5.85.09,24.62,24.62,0,0,1-5.56-.27c-.92-.16-1.86-.17-2.79-.26-1.55-.15-3.1-.37-4.65-.49-1.05-.08-2.12,0-3.17-.06-.59,0-.74.31-.65.84a3.52,3.52,0,0,1,0,.86c0,.66-.3,1-1,1a30.55,30.55,0,0,1-4-.41c-.61,0-1.21-.14-1.82-.16s-.77.2-.69.79a4,4,0,0,0,.44,1.28A2.84,2.84,0,0,1,4.54,71a8.06,8.06,0,0,0,.52,1.4,21.13,21.13,0,0,1,1.63,4.16,10.36,10.36,0,0,0,4,5.7A17.85,17.85,0,0,0,15,84.69a19.67,19.67,0,0,0,2,.85,17.32,17.32,0,0,0,5.5.4,25,25,0,0,0,6.06-1.58A18.74,18.74,0,0,0,35.79,79c.64-.71,1.35-1.34,2-2,1.12-1.24,1.93-2.7,3-4,1.6-2,2.28-4.44,3.34-6.7a3.66,3.66,0,0,0,.35-.88c-.87.27-1.71.51-2.5.84q-1.52.64-3.09,1.14a6.58,6.58,0,0,0-1.6.66c-2,1.06-3.89,2.14-5.86,3.18-1.41.74-2.7,1.71-4.18,2.33a23.69,23.69,0,0,1-4,1.05c-1,.23-2,.43-3,.62a16.08,16.08,0,0,1-4.1.07c-.72,0-1.44-.17-2.16-.25A7.39,7.39,0,0,1,10.42,73.71Z"/><path class="d" d="M38.6,64.63c0,.57-.26.36-.52.22C38.21,64.68,38.43,64.71,38.6,64.63Z"/><path class="c" d="M10.42,73.71a1,1,0,0,1,.36.07c2,1.2,4.2,1.12,6.37,1.35a17.19,17.19,0,0,0,5.39-.61c1.15-.25,2.28-.55,3.43-.78a11.91,11.91,0,0,0,3.55-1.67c1.91-1.15,3.89-2.17,5.85-3.23a9.29,9.29,0,0,1,1.84-1,45.22,45.22,0,0,0,4.72-1.32,7.51,7.51,0,0,1,1.74-.43.52.52,0,0,1,.53.12c-.34,1.14-.93,2.18-1.34,3.29-.85,2.31-2.5,4.12-3.84,6.11a18.91,18.91,0,0,1-2.44,2.77c-1,1-1.91,2.11-3,3a15.66,15.66,0,0,1-4.68,2.93,31.85,31.85,0,0,1-4.22,1.35,11.14,11.14,0,0,1-4.15.37c-.93-.14-1.9-.11-2.84-.21a14.33,14.33,0,0,1-3.1-1.17,18.66,18.66,0,0,1-5.18-3.31A8.19,8.19,0,0,1,7,77.67c-.75-2-1.42-4.07-2.34-6a11.34,11.34,0,0,0-1.17-2.4,3.06,3.06,0,0,1,1.93,1.29,3.89,3.89,0,0,0,1.56,1.39c.93.44,1.7,1.16,2.67,1.55A2.37,2.37,0,0,0,10.42,73.71Z"/><path class="a" d="M44.2,66.23a7.82,7.82,0,0,0-3,.77,21.07,21.07,0,0,1-2.21.57,6.66,6.66,0,0,0-1,.3.74.74,0,0,1-.82,0,8.26,8.26,0,0,1,2.52-1c1.37-.56,2.77-1,4.17-1.55a6.9,6.9,0,0,1,.91-.21A5.27,5.27,0,0,1,44.2,66.23Z"/><path class="e" d="M40.69,141.81c-.29-.1-.6-.18-.5-.6C40.44,141.34,40.67,141.48,40.69,141.81Z"/><path class="b" d="M37.34,138.3l2.85,2.91a2.39,2.39,0,0,0,.5.6,31.31,31.31,0,0,0,4.45,3.1c.1.06.26.09.2.25s-.2.29-.34.2c-.82-.5-1.47.1-2.17.31a30.43,30.43,0,0,1-3,.94,17.1,17.1,0,0,0-2.09.33,15.54,15.54,0,0,1-2.44.82,19.23,19.23,0,0,1-4.22.09,44.14,44.14,0,0,1-6.66-1.14c-1.46-.36-2.89-.82-4.32-1.31a16.54,16.54,0,0,0-3-1,6.47,6.47,0,0,1-2.29-1,11.75,11.75,0,0,1-3-2,19.39,19.39,0,0,1-3.49-4.89c-.36-.83-1-1.5-1.37-2.31a24.48,24.48,0,0,1-1.08-2.52,22.82,22.82,0,0,1-.94-3.61,23.87,23.87,0,0,1-.27-4.14A31.66,31.66,0,0,1,5,119.58c.18-1.36.12-2.71.21-4.06a18.64,18.64,0,0,1,1.48-6.61,29.34,29.34,0,0,1,1.86-3.45,7.52,7.52,0,0,1,1.75-1.9,2.71,2.71,0,0,0,.67-.64,2.37,2.37,0,0,1,2-.83,3.52,3.52,0,0,1,2.39,1.66c.51.74,1.06,1.42,1.61,2.12a23.47,23.47,0,0,1,1.88,3.23c.5.91.9,1.87,1.49,2.74a18,18,0,0,1,1.4,3.1,21.43,21.43,0,0,0,4.87,7,20.72,20.72,0,0,1,4.62,6.51c.06.31-.12.42-.39.45a3.6,3.6,0,0,1-.91-1.52,20.92,20.92,0,0,0-4.06-5.32,26.87,26.87,0,0,1-2.11-2.29,20.64,20.64,0,0,1-2.58-4.45c-.71-1.65-1.61-3.18-2.44-4.76-.26-.5-.53-1-.76-1.49a9.58,9.58,0,0,0-3.39-3.75,7.17,7.17,0,0,1-.95-.78c-.42-.42-.54-.35-1,0a4.33,4.33,0,0,0-1.33,2.8,18.52,18.52,0,0,0-.51,4.81,27.69,27.69,0,0,1-.28,4,20.52,20.52,0,0,0,.42,4.07,13.56,13.56,0,0,0,.52,2.18,39.81,39.81,0,0,1,.82,4.72c.1.54.43,1,.28,1.64a.42.42,0,0,1-.44.16.55.55,0,0,1-.31-.49,13.82,13.82,0,0,0-.45-1.82,25.6,25.6,0,0,0-1-5.21,38.92,38.92,0,0,1-.59-4.16c0-1.82.41-3.61.29-5.44a26.38,26.38,0,0,1,.62-5c-.91,1.72-2,3.25-2.26,5.15-.25,1.55-.45,3.08-.57,4.65s-.41,3.16-.53,4.75c-.11,1.42-.17,2.84-.14,4.28,0,1.7.47,3.34.65,5a5.46,5.46,0,0,0,.73,1.84c.54,1,.88,2.14,1.4,3.17a21.81,21.81,0,0,0,3,4.76,11.49,11.49,0,0,0,4.38,2.83c.51.21.92.58,1.43.75,1.28.41,2.54.9,3.85,1.25a51.19,51.19,0,0,0,7.68,1.54,14.79,14.79,0,0,0,5,0c.42-.18.87,0,1.19-.14a4.17,4.17,0,0,1-1.15-.05c-.16,0-.37,0-.38-.25s.22-.27.4-.28a11.42,11.42,0,0,1,1.31,0,11,11,0,0,0,2.28-.3c.19,0,.41-.06.52-.3a18.89,18.89,0,0,0-5-.94,10.07,10.07,0,0,1-4.71-1.25,34.42,34.42,0,0,1-7.55-5.53,2.61,2.61,0,0,1-.41-.47c-.08-.12-.15-.26,0-.39a.33.33,0,0,1,.41,0,2.09,2.09,0,0,1,.29.23,54,54,0,0,0,7.16,5.26,11.38,11.38,0,0,0,5.41,1.49c1.2,0,2.4.15,3.6.12.45,0,.9-.23,1.41.15,0,0,0-.17-.05-.1s0,0-.06,0a.29.29,0,0,1-.11-.43.48.48,0,0,1,.61-.16,16.9,16.9,0,0,0,1.62.49c-.79-.62-1.61-1.19-2.37-1.83a3.11,3.11,0,0,1-1-1.19c-.17-.45-.64-.69-1-1a2.41,2.41,0,0,1-.76-1A.53.53,0,0,1,37.34,138.3Z"/><path class="f" d="M37.34,138.3l-.13.52c-.31.07-.45-.17-.61-.34a19.6,19.6,0,0,1-2.51-3.36c-.55-1-1.18-1.89-1.72-2.86-.12-.21-.3-.41-.18-.68a.63.63,0,0,1,.52-.17c.45.32.51.86.74,1.31A27.63,27.63,0,0,0,37.34,138.3Z"/><path class="g" d="M32.72,131.46a.82.82,0,0,1-.5.13h-.06a5.41,5.41,0,0,1-1.3-2.75.84.84,0,0,0,.38-.41l.11,0c.38.77.81,1.52,1.19,2.3C32.64,131,32.83,131.19,32.72,131.46Z"/><path class="c" d="M32.72,131.46l-1.17-2.35a1.1,1.1,0,0,1-.2-.63,3.18,3.18,0,0,1,.85,1.11,9.26,9.26,0,0,1,1.25,3.13A6.08,6.08,0,0,1,32.72,131.46Z"/><path class="a" d="M30.86,128.85a17.47,17.47,0,0,0,1.36,2.74,16.68,16.68,0,0,0,1.38,2.48A29.28,29.28,0,0,0,35.49,137a8.91,8.91,0,0,0,1.72,1.86,8.58,8.58,0,0,0,.86,1,3.66,3.66,0,0,1,1.14,1.39c.2.59.92.91,1.45,1.31s1.3,1,2.11,1.59a8.1,8.1,0,0,1-1.88-.41c-.14,0-.26-.14-.39-.19s-.4-.06-.48.15.11.27.27.32.13.08.19.11a39.27,39.27,0,0,1-7.51-.36,13.3,13.3,0,0,1-5.19-2.42c-1.55-1.09-3-2.29-4.54-3.45a5.5,5.5,0,0,1-.91-.83c-.09-.12-.24-.23-.37-.09s0,.22.11.31a22.28,22.28,0,0,0,3.33,2.88c.78.56,1.54,1.16,2.35,1.7a12.64,12.64,0,0,0,7,2.53,15.44,15.44,0,0,1,4.25.76,4.68,4.68,0,0,0,.54.1c.11,0,.29-.06.32.1a.36.36,0,0,1-.2.42,5.83,5.83,0,0,1-.71.22,12.7,12.7,0,0,1-3.14.26,1.17,1.17,0,0,0-.8.18l2,.2c-.48.38-1.06.12-1.52.36-1.06,0-2.13-.21-3.19-.19a26.74,26.74,0,0,1-3.58-.31,8.86,8.86,0,0,1-2.89-1.26,18.48,18.48,0,0,1-3.25-2.54,19.39,19.39,0,0,0-1.65-1.21,5.75,5.75,0,0,1-1.82-2,.81.81,0,0,1-.14-.76c.24-.23.37,0,.5.14a25.78,25.78,0,0,1,1.89,1.88,1.84,1.84,0,0,0-.58-.82q-1.8-1.72-3.51-3.52a19.94,19.94,0,0,1-4.47-6.59,1.83,1.83,0,0,1-.24-1,30.9,30.9,0,0,1-.67-3.45c-.29-2.62-1.29-5.11-1.46-7.75a12.74,12.74,0,0,1,.19-3.32,5.67,5.67,0,0,0,.07-1.36,23.75,23.75,0,0,1,.91-7.16c.18-.71.87-1.12,1.38-1.63.21-.22.57,0,.7.22.5.74,1.35,1,2,1.6a8.41,8.41,0,0,1,2,2.23c1.07,2.13,2.39,4.14,3.31,6.35.57,1.37,1.36,2.6,2,3.9a11.25,11.25,0,0,0,2,2.53c1.24,1.27,2.47,2.55,3.6,3.92A21.3,21.3,0,0,1,30,127.17,15.72,15.72,0,0,1,30.86,128.85Z"/><path class="c" d="M19,138.57c0,.66.44,1.08.76,1.57.56.87,1.52,1.25,2.27,1.89.6.52,1.23,1,1.81,1.53a14.58,14.58,0,0,0,3.2,2.09,9.91,9.91,0,0,0,4.6.87,28.44,28.44,0,0,0,3.57.16c.16,0,.22.09.23.23a11.46,11.46,0,0,1-3.09.2,36.59,36.59,0,0,1-6.26-.89,36.3,36.3,0,0,1-5.87-1.65,10.54,10.54,0,0,1-1.65-.52c-1.39-.86-3-1.29-4.32-2.28a10.79,10.79,0,0,1-2-2,22.42,22.42,0,0,1-2.92-5.15c-.44-1.05-1-2.07-1.45-3.1a8.78,8.78,0,0,1-.37-2,13.14,13.14,0,0,1-.45-3.65c0-.6-.12-1.22-.08-1.84.1-1.51.2-3,.34-4.54a29.39,29.39,0,0,0,.42-4.39A4.69,4.69,0,0,1,8,113.67c.15-.56.19-1.17.3-1.76a7.58,7.58,0,0,1,.59-2,28.56,28.56,0,0,1,1.72-3.23c.06-.1,0-.34.26-.21s.08.24,0,.38a20.14,20.14,0,0,0-.65,4.76,3,3,0,0,0-.13,1.46c0,1.13-.26,2.24-.28,3.37,0,.26.06.52,0,.79.2,1.37.51,2.72.62,4.11.07.64,0,1.29,0,1.94a10.22,10.22,0,0,0,1,3.3c.35.7.3,1.52.64,2.23.32.27.28.68.43,1A18.79,18.79,0,0,0,15.82,135a42.33,42.33,0,0,0,3,3.16C18.91,138.26,19.06,138.36,19,138.57Z"/><path class="f" d="M19,138.57a28.55,28.55,0,0,1-5.78-7,8.12,8.12,0,0,1-1.07-2.74l.36-.12a25.38,25.38,0,0,0,1.65,3.5,25.92,25.92,0,0,0,2.19,2.9c1.43,1.69,3.07,3.18,4.63,4.74a2.55,2.55,0,0,1,.56.82c0,.09.1.2,0,.28s-.22,0-.29-.11A27,27,0,0,0,19,138.57Z"/><path class="a" d="M11.53,126.61a4.87,4.87,0,0,1-1-2.46c-.14-.53,0-1.11-.19-1.65s.27-.73.24-1.13a9.8,9.8,0,0,1,.73,2.91A12.14,12.14,0,0,1,11.53,126.61Z"/><path class="a" d="M9.92,117.26c-.51-.52-.14-1.12-.09-1.64.1-1.13.14-2.26.21-3.39,0-.23,0-.46.25-.59A24.39,24.39,0,0,1,10,116C10,116.42,10.21,116.86,9.92,117.26Z"/><path class="c" d="M43.78,144.68a1.45,1.45,0,0,1-1.14.34C43,144.86,43.14,144.25,43.78,144.68Z"/><path class="b" d="M6.84,158.27A2.12,2.12,0,0,1,5.73,157c-.12-.57,0-.77.61-.87a23.09,23.09,0,0,1,4.46-.32,29.63,29.63,0,0,1,3.52.17,18.67,18.67,0,0,0,3,.15,13.33,13.33,0,0,1,3.82.62,27.7,27.7,0,0,1,2.8.91,16.55,16.55,0,0,1,2,1.09,26.42,26.42,0,0,1,3.4,2.17,17.18,17.18,0,0,1,3,3.15c.72,1,1.51,1.88,2.18,2.89a33.24,33.24,0,0,1,2.06,3.8c.79,1.61,1.56,3.24,2.32,4.86a26.86,26.86,0,0,0,2.42,3.8,27,27,0,0,1,3.18,5.51c.37,1,.78,1.93,1.2,2.88a39.48,39.48,0,0,1,1.15,4.09c.18.56.27,1.15.44,1.72.09.3.11.6-.2.67s-.28-.28-.34-.48a10.29,10.29,0,0,0-4-5.73,19.3,19.3,0,0,0-4.2-2.13c-1.64-.68-3.28-1.38-4.91-2.07a21.8,21.8,0,0,0-3-1.28c-2.22-.57-4.33-1.55-6.6-1.86a47.43,47.43,0,0,1-5.69-1.17c-1.66-.44-3.3-1-5-1.36a17.33,17.33,0,0,1-3.92-1.35,11.93,11.93,0,0,1-4.92-4.4,7.17,7.17,0,0,1-.78-5.72c.22-1,.43-2,.55-3.08a7.62,7.62,0,0,0-.34-2.36,6.94,6.94,0,0,0-1.26-2.71c-.45-.63-.26-1,.52-.87C4.52,157.81,5.68,158.06,6.84,158.27Z"/><path class="c" d="M38.59,185.13a10,10,0,0,1-2.31-.86c-1.37-.56-2.71-1.2-4.09-1.75a61.52,61.52,0,0,0-7.49-2.39c-1.53-.39-3.12-.53-4.67-.87s-3.09-.85-4.64-1.26c-1.14-.3-2.27-.58-3.41-.85a11.5,11.5,0,0,1-3.5-1.66,10.33,10.33,0,0,1-2.7-2.5,6.63,6.63,0,0,1-1.32-6.06,9.68,9.68,0,0,0,.48-4.69,9.53,9.53,0,0,0-1.1-3.38,4.13,4.13,0,0,1-.26-.57c1.19.33,2.33.32,3.42.69a3,3,0,0,0,1.26.21c.13,0,.32,0,.32-.23s-.14-.18-.22-.26a8.46,8.46,0,0,0-1.86-1.45.46.46,0,0,1-.13-.39c0-.21.21-.14.35-.15a35,35,0,0,1,4.7-.21c1.81.06,3.64.13,5.46.14a15.66,15.66,0,0,1,6.71,1.57,28.3,28.3,0,0,1,5.26,3.13,27.6,27.6,0,0,1,6.49,8.08c-.13.2-.37.26-.56.37a1.69,1.69,0,0,0-.91,1.18c-.06.46-.3.63-.73.48a3.29,3.29,0,0,1,.41.42,2.77,2.77,0,0,1,.31.56,1.79,1.79,0,0,0,.37.71,3.81,3.81,0,0,1,.89,3.29.53.53,0,0,0,.09.53c.33.34.55.77.91,1.1.53.48.56.83.07,1.38a4.92,4.92,0,0,0-1.2,2.29c-.17.79,0,1,.71,1.34s1.63.89,2.46,1.32C38.43,184.53,38.69,184.75,38.59,185.13Z"/><path class="a" d="M38.59,185.13a1.49,1.49,0,0,0-1.09-.94c-.82-.29-1.44-.95-2.31-1.17-.48-.12-.59-.92-.28-1.72a5.37,5.37,0,0,1,1.16-2c.48-.46.4-.74-.1-1.21a13.54,13.54,0,0,1-1-1.22c-.11-.13-.06-.26,0-.41a3.55,3.55,0,0,0-.86-3.31,1.11,1.11,0,0,1-.33-.78.23.23,0,0,1,.28.07,15.41,15.41,0,0,1,2.08,2.8,3.6,3.6,0,0,0,.73,1.26c1,1.42,2,2.87,3,4.32.76,1.12,1.48,2.27,2.27,3.38.66.94,1.09,2,1.69,3,.29.47.61.92,1,1.48a2.6,2.6,0,0,1-1.21-.87,10.54,10.54,0,0,0-4-2.22A2.48,2.48,0,0,1,38.59,185.13Z"/><path class="a" d="M33.47,171.92l-.75-.7.07-.09c.15.07.3.16.46.22s.44,0,.46-.22c.07-1,.77-1.44,1.63-1.71.62,1.53,1.48,3,2.16,4.46a33.77,33.77,0,0,0,4.27,7c.31.39.57.81.85,1.23.11.17.25.32-.14.4-.6.11-.08.57-.26,1-1.82-3-3.88-5.73-5.88-8.5a1.42,1.42,0,0,1-.63-.56A23.62,23.62,0,0,0,33.47,171.92Z"/><path class="h" d="M33.47,171.92c.32,0,.48.22.65.42.75.89,1.48,1.79,2.22,2.69a.44.44,0,0,0-.25.25l-2-2.48a1.18,1.18,0,0,0-.38-.39C33.65,172.24,33.46,172.13,33.47,171.92Z"/><path class="b" d="M31.87,170.44a5.52,5.52,0,0,1-1.76-1.57A30.33,30.33,0,0,0,24,163.52a16.85,16.85,0,0,0-7.16-2.8c-.81-.08-1.63-.23-2.46-.23a4.61,4.61,0,0,1,2.35-.26,18.86,18.86,0,0,1,9.42,4.14,29,29,0,0,1,5.62,5.78S31.8,170.26,31.87,170.44Z"/><path class="b" d="M45.12,224.35a15.82,15.82,0,0,0-4.31.82c-1.81.48-3.61,1-5.42,1.48a22.85,22.85,0,0,0-3.59,1.41,25,25,0,0,1-6,1.93,22.38,22.38,0,0,1-2.45.42,17.87,17.87,0,0,1-5.21-.32,42.18,42.18,0,0,1-4.8-1.22,8.91,8.91,0,0,1-2.87-1.77c-1.47-1.27-3-2.46-4.48-3.71-.78-.66-1.71-1.07-2.44-1.8A6.13,6.13,0,0,1,2.35,220c-.14-.29.2-.52.29-.45.28.22.68,0,.89.28a2.11,2.11,0,0,0,2,.69,20.59,20.59,0,0,1,2.5.15c1.35.11,2.69.07,4,.07,2.55,0,5.1,0,7.64-.15,1.37-.09,2.75-.1,4.13-.17,1.15-.06,2.34.07,3.51.07,2.1,0,4.21-.09,6.31,0a19.14,19.14,0,0,1,4.94,1A38.72,38.72,0,0,0,46,223.37c.42,0,.85,0,1.27.11a.43.43,0,0,1,.39.41c0,.23-.25.31-.4.3C46.53,224.15,45.81,224.46,45.12,224.35Z"/><path class="c" d="M35.06,226.1a19.52,19.52,0,0,1-2.5,1.06,25,25,0,0,1-5.2,2,21.67,21.67,0,0,1-5.67.85,30,30,0,0,1-5.42-.79,16.81,16.81,0,0,1-4-1.34,7.13,7.13,0,0,1-1.83-1.37c-1-1-2.29-1.81-3.37-2.8a16.46,16.46,0,0,1-1.62-1.82,2,2,0,0,0-.84-.68,16.09,16.09,0,0,1,3.05.09,34.46,34.46,0,0,0,4.19,0c1.19-.07,2.39-.07,3.59-.06,2,0,4-.17,5.95-.22s3.66-.08,5.48,0c.87,0,1.74,0,2.61,0h3.41c.18.28-.06.41-.21.57a8.48,8.48,0,0,0-1.17,1.36c-.39.63-.31.88.34,1.2a1.37,1.37,0,0,1,.69.59.79.79,0,0,0,.54.38,11.21,11.21,0,0,0,1.76.72A.22.22,0,0,1,35.06,226.1Z"/><path class="a" d="M35.06,226.1c-.69-.29-1.37-.6-2.06-.86-.2-.07-.45-.1-.5-.3-.14-.58-.64-.66-1.06-.82s-.32-.18-.29-.48c.1-1,.87-1.5,1.44-2.15.13-.16.34-.25.34-.49a20.69,20.69,0,0,1,6.3,1.34,21.17,21.17,0,0,0,3.19.89,9.77,9.77,0,0,0,1.9.46,4,4,0,0,1-1.43.37,51.49,51.49,0,0,0-5.26,1.4A15.33,15.33,0,0,1,35.06,226.1Z"/><path class="b" d="M13.22,287.61a8.87,8.87,0,0,0-1.36.81,10.77,10.77,0,0,1-1.86.93,6.1,6.1,0,0,0-1.3.77c-.4.27-.87.49-1.29.76a12.81,12.81,0,0,0-1.41,1,.91.91,0,0,1-.82.3,1.14,1.14,0,0,0-.78,0c-.8.5-.54-.28-.49-.45a11.44,11.44,0,0,1,1.7-4.19c.33-.41.56-.92.91-1.32a11.16,11.16,0,0,1,5.24-3.77A5,5,0,0,0,14,280.63c.5-.58,1.05-1.11,1.59-1.66,1.69-1.72,3.39-3.43,5.22-5,1.51-1.3,3.06-2.53,4.61-3.77.93-.75,1.85-1.5,2.82-2.18a69.71,69.71,0,0,1,6.11-4.14c1.16-.65,2.42-1.12,3.6-1.75a62.1,62.1,0,0,0,7.53-4.46c.19-.15.42-.31.6-.11s-.1.36-.23.52a19.64,19.64,0,0,0-3.62,5.29,18.26,18.26,0,0,0-1.19,3.92c-.06.43.06.87,0,1.29a31.19,31.19,0,0,1-.25,4.09c-.1.61-.24,1.22-.34,1.83a2.24,2.24,0,0,1-1,1.5c-.8.59-1.5,1.3-2.27,1.92a14.54,14.54,0,0,1-4.77,2.22c-1.06.34-1.06.31-1.08,1.41s0,2.09-.14,3.13a4.84,4.84,0,0,1-1.59,2.63,13.27,13.27,0,0,1-5,3.57,30.85,30.85,0,0,1-3.58,1.34,6.69,6.69,0,0,1-3.44.17,4.18,4.18,0,0,0-.5,0,1.61,1.61,0,0,1-1.26-.74,14.66,14.66,0,0,1-1.87-3.86C13.7,287.18,13.7,287.18,13.22,287.61Z"/><path class="c" d="M13.22,287.61a.53.53,0,0,1,.57-.55c.3,0,.22.45.3.7A1.16,1.16,0,0,0,13.22,287.61Z"/><path class="c" d="M13.58,282.11c4.09-5,9-8.9,14-12.86s10.74-6.62,16.27-9.69c-.08.4-.47.62-.68,1A15.48,15.48,0,0,0,40.41,268c0,1,0,2,0,3,0,.85-.1,1.7-.18,2.54A2.92,2.92,0,0,1,39,275.74c-1,.7-2,1.45-3.06,2.21a11.93,11.93,0,0,1-3.69,1.56c-1.94.59-3.94.87-5.89,1.41-1.8.49-3.65.76-5.48,1.07a5.79,5.79,0,0,1-.93,0,43.66,43.66,0,0,0-5.94.16A1.63,1.63,0,0,1,13.58,282.11Z"/><path class="a" d="M4.82,290.72a6.2,6.2,0,0,1,1.44-3.17,7.64,7.64,0,0,1,3.27-2.73,17,17,0,0,1,2.75-1.23,32.07,32.07,0,0,1,5.41-.71c1.4-.15,2.81-.23,4.2-.42a31.62,31.62,0,0,0,4.53-.92c1.31-.38,2.67-.49,4-.86.2-.06.39,0,.4.24a15.73,15.73,0,0,1-.19,3.82c-.35,1.44-1.53,2.29-2.53,3.27-1.87,1.81-4.32,2.25-6.63,3.06a9.83,9.83,0,0,1-3.39.44,1.59,1.59,0,0,1-1.6-.87,12.25,12.25,0,0,1-1.43-3.2c-.07-.39-.26-.73-.34-1.11a.66.66,0,0,0-.8-.44,8.2,8.2,0,0,0-2.8.78,34,34,0,0,0-3.49,1.94A22.63,22.63,0,0,0,4.82,290.72Z"/><path class="b" d="M40.1,313c-.08,1.14-.23,2.28-.2,3.42,0,1.4,0,2.8.08,4.2.08,2.09.11,4.2,0,6.28a24.59,24.59,0,0,1-2.28,8.64c-.42.95-.89,1.85-1.38,2.75A7.87,7.87,0,0,1,33.67,341,40.4,40.4,0,0,1,29,343.52,15.39,15.39,0,0,1,23.67,345a25.4,25.4,0,0,0-3.28.74,17,17,0,0,1-4.61.75,2,2,0,0,1-1.92-1.23A27.37,27.37,0,0,1,12.42,341c-.09-.32-.14-.42-.46-.29a3.07,3.07,0,0,1-1.62.15c-.58-.1-.93-.4-.87-1a24.41,24.41,0,0,1,1-5c.4-1.17.92-2.3,1.27-3.48a8,8,0,0,1,4.14-4.94c1.5-.81,3.1-1.37,4.59-2.17a39.14,39.14,0,0,0,4.21-2.45c.89-.62,1.8-1.17,2.73-1.7a19,19,0,0,0,6.76-6c1.1-1.66,2.35-3.23,3.41-4.91.62.27.71.53.37,1a1,1,0,0,1-.37.4,1.47,1.47,0,0,0-.53.6c-1.07,1.63-2.24,3.2-3.41,4.77a15.3,15.3,0,0,1-4.86,4.11,29.94,29.94,0,0,1-2.74,1.72c-1.39.94-2.8,1.86-4.27,2.67-1.15.63-2.36,1.13-3.55,1.66a26.25,26.25,0,0,0-3.33,1.83,5.94,5.94,0,0,0-2.27,3.19,48.42,48.42,0,0,0-1.78,5.12,27.73,27.73,0,0,0-.61,3.12c-.08.64.15.87.77.76s1.28-.2,1.56-.94a1.3,1.3,0,0,1,.7-.68.38.38,0,0,1,.47,0,.3.3,0,0,1,0,.45,2.44,2.44,0,0,0-.28,2.85c.31.83.58,1.69.89,2.53a1.78,1.78,0,0,0,2.17,1.4,17.39,17.39,0,0,0,3.72-.74,29.63,29.63,0,0,1,4-.83,15.87,15.87,0,0,0,5.39-1.83A33.34,33.34,0,0,0,34,339.9a5.45,5.45,0,0,0,1.34-1.37,24.59,24.59,0,0,0,3.28-7.71,18.6,18.6,0,0,0,.63-5.56c0-1.25,0-2.5,0-3.74,0-1.89-.16-3.78-.09-5.67a17.12,17.12,0,0,1,.32-3C39.73,312.63,39.91,312.84,40.1,313Z"/><path class="b" d="M37.51,310.66c.66-.71.66-.71.1-1.38a17.43,17.43,0,0,0,1.62-5.21c.05-.24,0-.62.3-.6a.86.86,0,0,1,.7.68,6.44,6.44,0,0,1,.22,1.44,28.14,28.14,0,0,1-.19,6.22c-.07.4.05.83-.16,1.22l-.6-.25c-.15-.13-.11-.3-.08-.47.3-1.71.36-3.45.47-4.7,0,.6-.21,1.66-.38,2.73-.06.37-.09.74-.13,1.11,0,.2-.07.39-.31.4a.39.39,0,0,1-.43-.36,2.25,2.25,0,0,1,0-1.06,13.16,13.16,0,0,1-2.16,3.8A27.17,27.17,0,0,0,34,318.79a21.66,21.66,0,0,1-3.73,5.62c-.8.82-1.53,1.7-2.24,2.59a27.64,27.64,0,0,1-4.71,4.59c-1.18.92-2.28,1.93-3.4,2.91s-2.13,1.59-3.21,2.36c-.17.12-.4.35-.58.06s.1-.42.27-.55c.69-.54,1.36-1.09,2.05-1.62,1.27-.95,2.31-2.15,3.54-3.14a32,32,0,0,0,4.55-4.23c1.08-1.26,2.12-2.55,3.2-3.81a16.15,16.15,0,0,0,3.23-4.77c.28-.71.77-1.34,1-2a19,19,0,0,1,2.29-3.67C36.79,312.34,37,311.4,37.51,310.66Z"/><path class="c" d="M29.78,323.65c-.68.83-1.38,1.64-2,2.48a31.32,31.32,0,0,1-3.27,3.54c-1.42,1.29-3,2.44-4.33,3.79a35.4,35.4,0,0,1-3.68,3,.56.56,0,0,0-.31.56c.65-.45,1.25-.84,1.85-1.25,1.61-1.12,3-2.52,4.49-3.76,1-.81,2-1.58,3-2.47,1.58-1.5,2.87-3.25,4.3-4.88.12-.13.2-.25.39-.27a3.64,3.64,0,0,1,1.34.17,2.92,2.92,0,0,0,3.05-1.21,7.76,7.76,0,0,1,1.4-2.05,1,1,0,0,1,1.48-.15,1.81,1.81,0,0,0,1.24.29c.24,0,.49-.12.7.09,0,1.92,0,3.83,0,5.75a16.11,16.11,0,0,1-.67,3.83,26,26,0,0,1-2.06,5.51,9.5,9.5,0,0,1-2.15,3.09,17.86,17.86,0,0,1-3.21,2.09c-1.26.64-2.49,1.34-3.82,1.87a18.62,18.62,0,0,1-3.95.94c-1.61.26-3.16.72-4.74,1.11a10.25,10.25,0,0,1-3,.32,1.73,1.73,0,0,1-1.56-1.29c-.44-1.15-.84-2.32-1.2-3.5a2.06,2.06,0,0,1,.54-2.17c.09-.09.29-.17.13-.35s-.28,0-.39.06a2.16,2.16,0,0,0-.7.77c-.12.21-.07.53-.45.6a3.48,3.48,0,0,1-1.86.2c-.21-.08-.26-.24-.23-.5a21.42,21.42,0,0,1,.9-4.35c.55-1.68,1.16-3.34,1.81-5a6.24,6.24,0,0,1,2.93-3.15c1.4-.79,2.86-1.44,4.31-2.11a32.59,32.59,0,0,0,5.22-3c.9-.63,1.86-1.14,2.8-1.7a7.81,7.81,0,0,1,.75-.53c.36.06.32.38.27.57a3.53,3.53,0,0,0,.59,2.47C29.72,323.26,29.85,323.43,29.78,323.65Z"/><path class="a" d="M39.36,321.53c-.5,0-1,.23-1.52,0a1.34,1.34,0,0,1-.53-.27.74.74,0,0,0-1.14,0,6.41,6.41,0,0,0-1.41,2,1.94,1.94,0,0,1-1.16,1.12c-.82.27-1.6.65-2.47.16-.29-.15-.7.09-1-.2a9.77,9.77,0,0,1,1.3-1.71,13.52,13.52,0,0,0,2-3.24,36.05,36.05,0,0,1,2.18-4.24c.72-1.23,1.64-2.37,2.37-3.61a6.5,6.5,0,0,0,.49-1.07.59.59,0,0,1,.39-.43,3.67,3.67,0,0,0-.12,1.26c0,.2,0,.4.29.4s.19-.23.2-.38a42,42,0,0,1,.7-4.45,26.14,26.14,0,0,1-.44,5.86c0,1.07-.22,2.12-.24,3.2C39.22,317.83,39.35,319.68,39.36,321.53Z"/><path class="a" d="M29.78,323.65c-.43-.51-.46-1.22-.91-1.72-.18-.21-.1-.51,0-.78a1.41,1.41,0,0,0,0-1.12,16.91,16.91,0,0,0,5.76-5.4c.89-1.31,1.86-2.57,2.73-3.9.06-.08.11-.19.24-.07A9.52,9.52,0,0,1,35.78,314,16.78,16.78,0,0,0,33.54,318a23.06,23.06,0,0,1-3.3,5.28A5.87,5.87,0,0,1,29.78,323.65Z"/><path class="b" d="M31.45,356.3c2.16-.64,4.38-1.07,6.56-1.62a.54.54,0,0,1,.56.18c1,1.09,2.15,1.92,3.2,2.9a10.49,10.49,0,0,1,2.63,3.79,39.11,39.11,0,0,1,1.85,4.9,21.2,21.2,0,0,1,.7,3.65c0,.8-.06,1.58-.06,2.38-.41.48-.51.49-1,.06a4.6,4.6,0,0,1,.09-1.48,10.26,10.26,0,0,0-.13-2.65A24.63,24.63,0,0,0,44.8,364a1.1,1.1,0,0,0,.11.49c.15.39.27.74-.21,1a.94.94,0,0,1-1.29-.15,6.61,6.61,0,0,1-1.51-2A1.66,1.66,0,0,0,40,362.14a7.75,7.75,0,0,1-1.73-.12,1.74,1.74,0,0,1-1.67-1.91c0-.06,0-.12-.12-.25a8.13,8.13,0,0,0-1.6,1.27,1.44,1.44,0,0,1-1.06.58,1.81,1.81,0,0,1-.53-2.29s-.06-.07-.09-.05a7,7,0,0,1-2.63.63,7.27,7.27,0,0,0-2.44.86,3.4,3.4,0,0,1-1.05.38,3.59,3.59,0,0,0-1.35.41,1.18,1.18,0,0,1-1.54-.54,1,1,0,0,1,.49-1.52,5.43,5.43,0,0,1,2-.72,2.8,2.8,0,0,0,1.54-.77c.59-.55,1.42-.67,2-1.22a.3.3,0,0,1,.3-.05C31.05,357.11,31.29,356.78,31.45,356.3Z"/><path class="b" d="M42.91,383.2c-.44,1.21-1.29,2.2-1.79,3.4a6.89,6.89,0,0,1-1.25,1.76c-.51.58-.86,1.25-1.35,1.84a11.94,11.94,0,0,1-1.94,1.68c-.53.42-.94,1.1-1.63,1.2-1.66.24-3,1.39-4.73,1.52-1.44.1-2.88.35-4.33.38s-3,0-4.44.17a14.87,14.87,0,0,1-3.2.14,1.07,1.07,0,0,1-1-1.46.74.74,0,0,0-.05-.47c-.21-.61-.46-1.2-.64-1.81-.12-.4-.24-.39-.53-.13l-.54.49c-.87.84-2,.71-3.1.88a4.41,4.41,0,0,1-2.38-.56c-.93-.39-1.89-.69-2.8-1.13a6.27,6.27,0,0,1-3.17-3.75,15.32,15.32,0,0,1-1-5.55,16.46,16.46,0,0,1,.76-4.12,27.6,27.6,0,0,1,2.48-6.43,18.64,18.64,0,0,1,4.05-4.8,30.85,30.85,0,0,1,3.13-2.58,38.16,38.16,0,0,1,7.38-3.8c.13-.05.23-.19.39-.19.49.21.5.26.12.61-1.68.81-3.41,1.53-5,2.45A26.48,26.48,0,0,0,11,366.79a20.91,20.91,0,0,0-4,4.65,24.53,24.53,0,0,0-2.31,5.76,19.49,19.49,0,0,0-.91,4,12,12,0,0,0,.54,4.54c.18.53.31,1.08.48,1.61a5.32,5.32,0,0,0,3.05,3.27A31.58,31.58,0,0,0,11.38,392a7.75,7.75,0,0,0,3,0c.24,0,.39-.23.56-.38a5.72,5.72,0,0,1,1.1-.92c.58-.32.81-.25,1,.39s.43,1.21.62,1.82a.76.76,0,0,0,.93.59c1.14-.14,2.27-.26,3.41-.35a22.32,22.32,0,0,1,3.47.06,21.15,21.15,0,0,0,5.39-.33,10.68,10.68,0,0,0,3-1.34,8.38,8.38,0,0,0,2.55-2.23,14.59,14.59,0,0,1,1.2-1,23.88,23.88,0,0,0,1.79-2.44c.49-.65,1-1.28,1.46-2,.7-1.1,1.4-2.2,2.07-3.32a1.46,1.46,0,0,1,.63-.67c.34,0,.55.17.49.47-.09.46-.15,1-.5,1.29A1.48,1.48,0,0,0,42.91,383.2Z"/><path class="a" d="M21.35,360.39c.39-.27-.05-.35-.12-.51a3,3,0,0,1,1.12-.37c.1.07.18.2.31.17a4.92,4.92,0,0,0,2-.71.25.25,0,0,0,.08-.33,5.79,5.79,0,0,1,1.63-.72,1.16,1.16,0,0,0,1-.3,27.07,27.07,0,0,1,4.12-1.32c.08.81-.14,1-.93.67-.13-.05-.24-.06-.33,0-.63.67-1.58.81-2.25,1.44s-1.73.52-2.54.95a4.07,4.07,0,0,0-1,.57.88.88,0,0,0,0,1.28.91.91,0,0,0,1.22.26,4.28,4.28,0,0,1,1.37-.43,19.94,19.94,0,0,0,2.46-1,2.75,2.75,0,0,1,1.25-.31,4.6,4.6,0,0,0,2.41-.63c.11-.06.26-.21.38,0a.33.33,0,0,1-.07.41.8.8,0,0,0,0,1.32c.22.22.05.6.34.77.06.27-.16.36-.32.48-.94.78-2,1.33-3,2-.17-.12-.33-.2-.53,0a.6.6,0,0,1-.55.2,1.61,1.61,0,0,0-.92.06.92.92,0,0,1-1.14-.5.94.94,0,0,1,.15-1.2c.15-.17.42-.27.46-.69a13.89,13.89,0,0,1-2.27.73c-1.29.28-2.54.69-3.82,1a1.75,1.75,0,0,1-2-1.4,1.87,1.87,0,0,1,.83-1.52A4.9,4.9,0,0,1,21.35,360.39Z"/><path class="a" d="M42.91,383.2c-.38-.78-.27-.94.43-1.57a2.53,2.53,0,0,0,.54-1.4c0-.17-.17-.26-.35-.27-.21-.31,0-.56.11-.81a18.31,18.31,0,0,0,2.11-6.27c0-.17,0-.39.28-.4.28.51.57.1.86,0a4.4,4.4,0,0,1-.33,1.87,44.61,44.61,0,0,1-1.93,5.6C44.14,381.07,43.49,382.12,42.91,383.2Z"/><path class="b" d="M24.71,358.64c.11,0,.26,0,.32.11s-.06.18-.14.24a5.62,5.62,0,0,1-2.33.89c-.32.08-.32-.14-.21-.37Z"/><path class="b" d="M27.33,357.62c-.37.51-.66.6-1,.3A2.48,2.48,0,0,1,27.33,357.62Z"/><path class="c" d="M46,372.48c-.2.89-.39,1.79-.59,2.69a17.42,17.42,0,0,1-1.62,4,1.65,1.65,0,0,0-.29.81,25.55,25.55,0,0,0-1.59,2.53,34.07,34.07,0,0,1-1.9,2.83,20.48,20.48,0,0,0-1.63,2.31,2.84,2.84,0,0,1-.88.91,11.27,11.27,0,0,0-2.22,2.08,12.22,12.22,0,0,1-2.66,1.67,9.71,9.71,0,0,1-4.33,1c-1.88.19-3.74-.18-5.6-.09a16.07,16.07,0,0,0-3.31.31,3.65,3.65,0,0,1-1.09.12c-.33,0-.65,0-.78-.54-.17-.72-.53-1.39-.7-2.11-.1-.46-.35-.45-.66-.28a5.06,5.06,0,0,0-1.22,1,1,1,0,0,1-.67.4,6.68,6.68,0,0,1-4-.37c-1-.55-2.13-.75-3.13-1.33a5.94,5.94,0,0,1-2.74-3.68,19.62,19.62,0,0,1-.79-3.65A11.13,11.13,0,0,1,4,379.18a38.53,38.53,0,0,1,1.69-5.31A17.9,17.9,0,0,1,9,368.51a32,32,0,0,1,4.77-4.18,26,26,0,0,1,5.12-2.82,20.42,20.42,0,0,0,2-1,.88.88,0,0,1,.41-.1c-.4.54-1.07.84-1.28,1.55-.11.38.35,1.46.73,1.56a3.4,3.4,0,0,0,1.84-.11,13.46,13.46,0,0,1,2.55-.67,9.1,9.1,0,0,0,2.2-.71,1,1,0,0,1,.46-.12c.15,0,.32,0,.39.14s-.1.26-.18.37a2.3,2.3,0,0,1-.37.32.76.76,0,0,0-.24,1.09c.23.37.55.66,1.07.42a.85.85,0,0,1,.94,0c.06.24-.13.33-.27.44-1.32,1-2.46,2.21-3.68,3.34-.47.44-.79,1-1.25,1.47,1-1.2,2.27-2.21,3.4-3.32a23,23,0,0,1,2.33-2,.45.45,0,0,1,.46-.11,12.18,12.18,0,0,1,2.33-1.63,9.4,9.4,0,0,0,1-.85,2,2,0,0,0,.92-.6,9,9,0,0,1,1.47-1.23c.13-.09.23-.34.39-.21a.59.59,0,0,1,.18.51c-.26.7.38,1,.58,1.55,0,.13.22.07.33.11a19.15,19.15,0,0,0,3.12.28,1.15,1.15,0,0,1,1,.73,8.48,8.48,0,0,0,1.71,2.46c.31.38.68.29,1.07.1s.31-.44.17-.75a2.25,2.25,0,0,1-.21-1c.31,0,.37.2.44.4a28,28,0,0,1,1.22,5.42A11.63,11.63,0,0,1,46,372.48Z"/><path class="b" d="M30.45,364.12a14.77,14.77,0,0,0-2.79,2.32,7.65,7.65,0,0,1-.74.65C25.91,368,25,369,24,370a.79.79,0,0,1,.25-.75A33.64,33.64,0,0,1,27.48,366c.63-.62,1.39-1.08,2-1.73.26,0,.38-.23.55-.37S30.45,363.76,30.45,364.12Z"/><path class="i" d="M29.51,360.91c.1,0,.17.07.15.15s-.06.27-.22.26-.1-.11-.1-.19A.19.19,0,0,1,29.51,360.91Z"/><path class="b" d="M19.6,406.83a9.69,9.69,0,0,0-4.94,1.05,8.65,8.65,0,0,0-2.93,2.44,9.79,9.79,0,0,0-2,3.46,11.22,11.22,0,0,0-.29,3.16,8.57,8.57,0,0,1,0,1.68,6.59,6.59,0,0,0,0,1.66,2.81,2.81,0,0,1-.94,2,18.85,18.85,0,0,0-1.49,2c-1,1.37-2,2.65-2.92,4.08a9.57,9.57,0,0,0-1.54,4.49c-.07,1.13-.3,2.24-.27,3.38a7.4,7.4,0,0,0,.11,1.57,20.85,20.85,0,0,0,.9,2.55c.25.62.51,1.29,1.42,1.1.08,0,.19.07.28.12A14.56,14.56,0,0,0,9.43,443a10.76,10.76,0,0,0,5.36-.39c1.44-.46,2.86-1,4.29-1.42A20.51,20.51,0,0,0,22,440c1.75-.88,3.51-1.73,5.32-2.49a44.31,44.31,0,0,1,6.54-1.88c1.7-.41,3.38-.89,5.1-1.21a33.55,33.55,0,0,1,5.11-.67,31.71,31.71,0,0,0,3.22-.36c.45-.07.57-.42.35-.83a1.57,1.57,0,0,0-1-.81,6.41,6.41,0,0,1-3.35-2.49,29.23,29.23,0,0,1-2.47-4.74c-1.09-2.27-1.81-4.73-3.26-6.83A25,25,0,0,0,34.78,414a24.51,24.51,0,0,0-4.6-3.48,36.51,36.51,0,0,0-3.87-2.14,13.63,13.63,0,0,0-4.15-1.29A15.94,15.94,0,0,0,19.6,406.83Z"/><path class="c" d="M38.57,421.41a3.8,3.8,0,0,0-.57-1.5,31,31,0,0,0-3.59-5.19,15.1,15.1,0,0,0-2.18-1.88,37.61,37.61,0,0,0-4.12-2.67,17.29,17.29,0,0,0-5.87-2.34,11,11,0,0,0-4.46-.15A10.35,10.35,0,0,0,14.31,409c-1.58,1-2.45,2.51-3.56,3.87a3.7,3.7,0,0,0-.59,2.24c0,1.15,0,2.31,0,3.47a2.11,2.11,0,0,0,1.31-.2,1.09,1.09,0,0,1,1.38.33.77.77,0,0,0,1,.22,10.2,10.2,0,0,1,7.47-.14,18.17,18.17,0,0,1,4.08,1.68c.29.18.69.29.56.77a.89.89,0,0,1-1,.59c-.9-.16-1.81-.23-2.71-.36-.62-.09-1.25,0-1.86-.13a20.56,20.56,0,0,0-5.75-.32,7.5,7.5,0,0,0-1.17.17,2,2,0,0,1-1.67-.24,4.23,4.23,0,0,0-2.5,1.43,58.36,58.36,0,0,0-3.85,5.28,9.23,9.23,0,0,0-1.91,4.72c-.14,1.61-.35,3.2-.34,4.82a3.91,3.91,0,0,0,2.68,4,16.26,16.26,0,0,0,5.65,1.33,7.7,7.7,0,0,0,2.12-.3c1.69-.46,3.41-.89,5-1.51a38.42,38.42,0,0,0,5.09-2.35,28.15,28.15,0,0,1,3.39-1.46A47.33,47.33,0,0,1,33.33,435c0-1.22.87-1.78,1.84-2.24a2,2,0,0,0,1-2.21c-.06-.22-.09-.45-.16-.67a1.05,1.05,0,0,1,.59-1.47c.18-.09.38-.15.57-.25a.8.8,0,0,0,.46-1.08,15.26,15.26,0,0,0-1.16-2.81,1.39,1.39,0,0,1,.7-1.88A4.82,4.82,0,0,0,38.57,421.41Z"/><path class="a" d="M38.57,421.41c-.74.14-1.16.87-1.94,1-.34.06-.61,1.56-.38,1.85a12.06,12.06,0,0,1,1.28,3c.15.35-.08.66-.5.79a2.44,2.44,0,0,0-1,.6c-.74.73-.05,1.38.08,2a1.33,1.33,0,0,1-.22,1.17,4.61,4.61,0,0,1-1.7,1.28,1.61,1.61,0,0,0-.82,1.87l3.3-.75c.58-.14,1.16-.27,1.73-.42a20.91,20.91,0,0,1,2.34-.43,2.94,2.94,0,0,0,2.14-1.29c.14-.22,0-.33-.13-.46l-1.36-1.06a3.05,3.05,0,0,1-.44-.44.32.32,0,0,1,0-.45.35.35,0,0,1,.45-.1,1.93,1.93,0,0,1,.49.27,1.46,1.46,0,0,0,1.41.52,15.65,15.65,0,0,1-1.49-2.13c-.49-1.16-1.1-2.26-1.62-3.41s-.89-2.19-1.37-3.27C38.73,421.5,38.64,421.46,38.57,421.41Z"/><path class="a" d="M11.77,420.91a.9.9,0,0,0,1.18.5,21,21,0,0,1,3.78-.36,7.11,7.11,0,0,1,2.32.29,8,8,0,0,0,1.83.19,23.92,23.92,0,0,1,4.05.46,1.12,1.12,0,0,0,1.29-.88.53.53,0,0,0-.3-.61A18.76,18.76,0,0,0,18.48,418a7.53,7.53,0,0,0-4.63.76.61.61,0,0,1-.94-.25c-.3-.6-.85-.53-1.29-.38a12.27,12.27,0,0,0-1.46.44c-.07.75-.12,1.51-.22,2.27,0,.36.08.35.33.23a12.86,12.86,0,0,1,3.37-1,19.84,19.84,0,0,1,5.91-.26,30.38,30.38,0,0,1,4.56.78c.26.07.51.17.77.25s.25.09.18.24-.19.11-.31.07a20.56,20.56,0,0,0-2.77-.64A20.66,20.66,0,0,0,11.77,420.91Z"/><path class="a" d="M47.25,495v.63a.51.51,0,0,1-.62.13,28.26,28.26,0,0,0-9.39-1.53c-2,0-3.89-.14-5.84-.17a2.63,2.63,0,0,1-1.21-.18,10.2,10.2,0,0,1-1.13-1.24c-.25-.26-.18-.51,0-.78a2.54,2.54,0,0,1,2.42-1.28,1.76,1.76,0,0,0,1.59-.67,1.7,1.7,0,0,1,1.86-.36c.83.22,1.49-.27,2.23-.36.27,0,.2-.28.09-.44-.44-.65-.13-1.23.17-1.8s.51-.47.86-.15a7.3,7.3,0,0,1,1.84,2.32,1.08,1.08,0,0,0,.19.31c.23.19.55.41.78.26s0-.47-.14-.66a9.14,9.14,0,0,1-1.5-3.78c-.68-.79-.41-1.82-.68-2.72a2.19,2.19,0,0,0-.59-1.07.92.92,0,0,1-.33-1c.38-.14.51.21.67.4a14.81,14.81,0,0,1,1.35,1.7c.72,1.09,1.55,2.11,2.34,3.15a17.89,17.89,0,0,1,1.42,2.33,38.65,38.65,0,0,1,2.3,5.13,38.21,38.21,0,0,0-3-6.6,17.62,17.62,0,0,0-1.29-1.9,17.24,17.24,0,0,1-1.43-2,24.28,24.28,0,0,0-2-2.55,1.1,1.1,0,0,1-.38-.76,1.4,1.4,0,0,1,2.55.29,2.09,2.09,0,0,0,.71,1.06.71.71,0,0,1,.22.84,1.56,1.56,0,0,0,1.44,1.72c.74,0,1,.19,1.42,1.24a2.14,2.14,0,0,1,.45-1.17c.19-.29.43-.52.81-.28a8,8,0,0,1,.33,2.51,15.83,15.83,0,0,0,.68,5.21A9.56,9.56,0,0,1,47,494,1.59,1.59,0,0,0,47.25,495Z"/><path class="b" d="M30.19,493.78a13.5,13.5,0,0,0,2.84.14c1.33.08,2.66.11,4,.16l2.34.08a17.36,17.36,0,0,1,4.8.75,13.13,13.13,0,0,1,2.6.76c.12.07.32,0,.48,0s.27.25.39.39a.45.45,0,0,1,0,.62c-.18.21-.28,0-.4-.11a18.45,18.45,0,0,0-6.42-1.77c-1.8-.22-3.62-.21-5.42-.31-1.45-.08-2.92,0-4.37-.09-1.16,0-2.31-.25-3.47-.38a11,11,0,0,0-2.07,0,24.84,24.84,0,0,1-3.76-.13,28.88,28.88,0,0,1-5-.56c-.64-.17-1.28-.37-1.91-.6-1.43-.53-2.86-1.05-4.25-1.67a6.8,6.8,0,0,1-2.82-2.52,16.31,16.31,0,0,1-1.66-2.67,36.57,36.57,0,0,1-2.21-6c-.27-1.11-.72-2.18-1-3.29a16,16,0,0,1-.45-2.9,53.06,53.06,0,0,1-.15-5.78,7.41,7.41,0,0,1,.64-2.3c.78-2.22,2.43-3.75,4.12-5.27s3.41-1.15,5.23-.58a18.23,18.23,0,0,1,3,1l1.65.83a10.42,10.42,0,0,1,.49-3.49,6,6,0,0,1,5.8-4.67c.58,0,1.15-.08,1.72-.13a8.37,8.37,0,0,1,6.81,2.58,57.86,57.86,0,0,0,4.78,4.35,32.55,32.55,0,0,1,2.74,2.37A15.92,15.92,0,0,1,41.39,466a19.06,19.06,0,0,1,2,4.33c.41,1.45.78,2.91,1.05,4.38s.65,2.83.95,4.24a12.48,12.48,0,0,1,.3,2.51c0,1.24.33,2.44.45,3.66.06.69.05,1.37.08,2.06s.19,1.41.14,2.13a15.84,15.84,0,0,1,.84,5.71c-.28-.12-.5-.26-.48-.63a13.67,13.67,0,0,0-.79-4.78,7.3,7.3,0,0,1-.31-2.06,32.12,32.12,0,0,0-.27-4.49c-.31-.15-.28-.44-.28-.7a20.78,20.78,0,0,0-.8-5.08c-.48-1.82-.86-3.68-1.24-5.53a15.63,15.63,0,0,0-1.46-3.82c-.59-1.19-1.28-2.33-1.95-3.47a9.68,9.68,0,0,0-2.56-2.77,78.39,78.39,0,0,1-6.43-5.78,7,7,0,0,0-5.68-2,19.2,19.2,0,0,0-3,.3,5.47,5.47,0,0,0-4,4,12.58,12.58,0,0,0-.59,3.11c0,.64-.46.9-1.07.69-.32-.11-.59-.32-.89-.45A33.58,33.58,0,0,0,10.27,460a2.79,2.79,0,0,0-2.19.45,7.36,7.36,0,0,0-1.72,1.43c-.34.38-.73.73-1.08,1.11A8.41,8.41,0,0,0,3,468.15a33.73,33.73,0,0,0,.1,5.22,31.7,31.7,0,0,0,1.4,6.17c.56,2,1.38,4,2.13,5.91a5.25,5.25,0,0,0,.71,1.24c.91,1.27,1.6,2.77,3.1,3.5a26.26,26.26,0,0,0,7.78,2.7,36,36,0,0,0,7.26.41,17.6,17.6,0,0,1,3.9.24A1.86,1.86,0,0,1,30.19,493.78Z"/><path class="c" d="M30.19,493.78a21.27,21.27,0,0,0-3.17-.31c-2.33.09-4.65-.06-7-.19a18.27,18.27,0,0,1-5.86-1.36c-1-.42-2.09-.78-3.12-1.19a7.64,7.64,0,0,1-3.19-2.91,23.83,23.83,0,0,1-3.26-7.28c-.41-1.34-.91-2.64-1.22-4a29.41,29.41,0,0,1-.61-6.62A8.4,8.4,0,0,1,3,466.83a9.63,9.63,0,0,1,2.27-4.06c.56-.48,1-1,1.58-1.57a4,4,0,0,1,4.63-1.05c1.19.44,2.46.63,3.63,1.15.38.17.7.42,1.08.56.7.25.89.12,1-.6a10.61,10.61,0,0,1,1.32-4.71,4.91,4.91,0,0,1,2.92-2.36,13,13,0,0,1,6.93,0,6,6,0,0,1,2.26,1.49c1.23,1.13,2.38,2.33,3.61,3.46s2.32,1.9,3.46,2.87a9.36,9.36,0,0,1,2.13,2.44c.62,1,1.19,2.11,1.79,3.16a19.35,19.35,0,0,1,1.92,5.3c.42,1.72.67,3.48,1.2,5.18a13.69,13.69,0,0,1,.55,4.09,1.58,1.58,0,0,0,.12.91c-.61.26-.61.26-1.12,2-.28-.22-.28-.55-.38-.82a.89.89,0,0,0-1.19-.67.62.62,0,0,1-.68-.17c-.32-.4-.64-.8-.94-1.22-.11-.17,0-.35.08-.52a.5.5,0,0,0-.24-.81.9.9,0,0,1-.51-.66c-.31-1.46-1.47-1.59-2.5-.7-.21.06-.3-.09-.4-.22-.86-1-1.73-2.06-2.62-3.07A25.53,25.53,0,0,0,30,471.94c-.89-.61-1.75-1.25-2.69-1.78a6.8,6.8,0,0,0-2.29-1,35.75,35.75,0,0,1,5.38,3.37,28.25,28.25,0,0,1,6.07,5.84c.41.52.87,1,1.23,1.56.1.15.28.26.21.48a1.08,1.08,0,0,0,.39.94,2.13,2.13,0,0,1,.75,1.64c.13.69,0,1.42.51,2.05.25.3.21.83.29,1.24a8.16,8.16,0,0,0,1,2.29c.17.31.34.61.49.93a.42.42,0,0,1,0,.42c-.12.15-.26,0-.39,0a1.52,1.52,0,0,1-1.1-1,7.45,7.45,0,0,0-1.76-2.13c-.14-.13-.25-.1-.38,0a1.87,1.87,0,0,0-.27,1.92c.38.46.16.59-.28.68a2.77,2.77,0,0,0-1.28.39c-.24.18-.49,0-.72-.05-.87-.15-1.71-.28-2.31.65-.29.44-.88.25-1.32.37a5.15,5.15,0,0,1-.56,0c-.34.05-.88,0-1,.22a12.48,12.48,0,0,1-1,1.16c-.13.19.08.3.18.42Z"/><path class="b" d="M37.93,480.44c-1-1.23-1.93-2.53-3-3.69a32.22,32.22,0,0,0-3.05-2.9c-1.71-1.4-3.62-2.52-5.42-3.79a5.68,5.68,0,0,0-1.16-.57.87.87,0,0,1-.51-.49,5.5,5.5,0,0,1,2.61,1,36.85,36.85,0,0,1,6.37,4.74,33.87,33.87,0,0,1,2.48,2.74c.55.66,1.08,1.34,1.68,1.95a32.35,32.35,0,0,1,2.13,2.73c.81,1.26,1.8,2.36,2.61,3.61a26.2,26.2,0,0,1,2.24,4.34c.58,1.39,1.11,2.8,1.66,4.22-.25.1-.33-.05-.41-.24-.4-1-.78-2-1.23-3-.54-1.2-1.12-2.39-1.74-3.55-1.11-2.07-2.76-3.75-4-5.71A12.17,12.17,0,0,0,37.93,480.44Z"/></svg>