<svg xmlns="http://www.w3.org/2000/svg" viewBox="0 0 50 50"><defs><style>.a{fill:#dc9ea5;}.b{fill:#edd0d3;}.c{fill:#e1b3b8;}</style></defs><path class="a" d="M11.33,36.89a9.22,9.22,0,0,0-1.35.8,10.77,10.77,0,0,1-1.86.93,5.86,5.86,0,0,0-1.3.77c-.4.28-.87.49-1.3.76a15,15,0,0,0-1.41,1,.89.89,0,0,1-.81.3,1.17,1.17,0,0,0-.79,0C1.72,42,2,41.21,2,41a11.27,11.27,0,0,1,1.7-4.19c.33-.41.56-.92.91-1.32a11.16,11.16,0,0,1,5.24-3.77,5.06,5.06,0,0,0,2.25-1.86c.5-.58,1-1.11,1.59-1.66,1.69-1.72,3.39-3.43,5.22-5,1.51-1.3,3.06-2.53,4.61-3.77.93-.74,1.85-1.5,2.82-2.18a69.71,69.71,0,0,1,6.11-4.14c1.16-.65,2.42-1.12,3.6-1.74a63.49,63.49,0,0,0,7.53-4.47c.19-.14.42-.31.6-.11s-.1.36-.24.52a19.73,19.73,0,0,0-3.61,5.3,18,18,0,0,0-1.19,3.91c-.06.43.06.87,0,1.29A31.19,31.19,0,0,1,39,21.93c-.1.61-.24,1.22-.35,1.83a2.27,2.27,0,0,1-1,1.5c-.8.59-1.5,1.3-2.27,1.92a14.54,14.54,0,0,1-4.77,2.22c-1.06.34-1.06.31-1.08,1.41s0,2.09-.14,3.13a4.84,4.84,0,0,1-1.59,2.63,13.16,13.16,0,0,1-4.95,3.57,31.55,31.55,0,0,1-3.58,1.34,6.72,6.72,0,0,1-3.45.17,3.93,3.93,0,0,0-.49,0,1.61,1.61,0,0,1-1.27-.74A15,15,0,0,1,12.21,37C11.82,36.45,11.82,36.45,11.33,36.89Z"/><path class="b" d="M11.33,36.89a.54.54,0,0,1,.58-.56c.3,0,.22.45.3.7A1.13,1.13,0,0,0,11.33,36.89Z"/><path class="b" d="M11.7,31.38c4.09-5,9.05-8.9,14-12.86S36.4,11.9,41.93,8.83c-.08.4-.47.62-.68,1a15.38,15.38,0,0,0-2.72,7.52c0,1,0,2,0,3,0,.85-.09,1.7-.17,2.54A2.92,2.92,0,0,1,37.09,25C36,25.71,35,26.47,34,27.22a11.93,11.93,0,0,1-3.69,1.56c-1.94.59-3.94.87-5.89,1.41S20.8,31,19,31.26a5.68,5.68,0,0,1-.92,0,43.66,43.66,0,0,0-5.94.16A1.6,1.6,0,0,1,11.7,31.38Z"/><path class="c" d="M2.94,40a6.2,6.2,0,0,1,1.44-3.17,7.64,7.64,0,0,1,3.27-2.73,17,17,0,0,1,2.75-1.23,31.94,31.94,0,0,1,5.41-.71c1.4-.15,2.81-.23,4.2-.42a31.9,31.9,0,0,0,4.53-.92c1.31-.38,2.67-.49,4-.86.2-.06.39,0,.4.24A15.73,15.73,0,0,1,28.73,34c-.35,1.44-1.53,2.29-2.54,3.27-1.86,1.81-4.31,2.25-6.63,3.06a9.77,9.77,0,0,1-3.38.44,1.59,1.59,0,0,1-1.6-.86,12.46,12.46,0,0,1-1.43-3.21c-.07-.39-.26-.73-.34-1.11a.66.66,0,0,0-.8-.44,8.2,8.2,0,0,0-2.8.78,33,33,0,0,0-3.49,1.94A22.63,22.63,0,0,0,2.94,40Z"/></svg>