<svg xmlns="http://www.w3.org/2000/svg" viewBox="0 0 50 50"><defs><style>.a{fill:#e1b3b8;}.b{fill:#dc9ea5;}.c{fill:#edd0d3;}</style></defs><path class="a" d="M19.58,44.62a40.74,40.74,0,0,0-4.79-.87,3.47,3.47,0,0,1-.84-.22c-1-.4-2-.37-3-.67a10,10,0,0,1-2.43-1c-.62-.38-1.29-.69-1.92-1.07s-.17-.8-.41-1.13c.3-.18.3-.76.85-.63.12,0,.25-.1.34-.23C8,38,8.62,37.15,9.25,36.32c.27-.35.21-.53-.21-.63a11.45,11.45,0,0,0-2-.47,6.63,6.63,0,0,1-4.12-2.1,5.71,5.71,0,0,0-.47-.39,2.47,2.47,0,0,1-.87-2.59c.36-2.82,2.09-4.87,3.84-6.89.79-.91,1.72-1.71,2.59-2.57a.64.64,0,0,0,.74-.12c1.58-1.51,3.44-2.67,5.13-4,.34-.27.66-.56,1-.83a23.94,23.94,0,0,1,5.45-2.95,42,42,0,0,1,4.75-1.83A47.88,47.88,0,0,1,31.2,9.6c1.21-.21,2.42-.42,3.61-.67,1.58-.33,3.2-.49,4.77-.87a11.82,11.82,0,0,0,4.21-1.62,2.41,2.41,0,0,1,.72-.35c.56-.19.75-.1.85.5a4.9,4.9,0,0,1,.13,1.48,3.61,3.61,0,0,0,.07,1.18,25.27,25.27,0,0,1-.18,7.86,47.12,47.12,0,0,1-.89,5.4,20.91,20.91,0,0,1-1.91,4.58,57.83,57.83,0,0,1-3.5,5.74,24.46,24.46,0,0,1-7.9,7.71c-1.71,1-3.42,2-5.2,2.79a12.15,12.15,0,0,1-5.89,1C19.81,44.27,19.58,44.26,19.58,44.62Z"/><path class="b" d="M19.58,44.62c-.07-.17-.32-.28-.21-.49s.33,0,.5,0a12.57,12.57,0,0,0,6-.92,35.51,35.51,0,0,0,3.44-1.71c2-1.2,4.09-2.24,5.68-3.93a33.58,33.58,0,0,0,4.25-5.24c1.32-2.12,2.68-4.21,3.81-6.45a19.86,19.86,0,0,0,2-7.24c.13-1.36.41-2.69.53-4a18,18,0,0,0-.13-5.07c-.17-.83,0-1.67-.14-2.51-.14-1-.25-1.11-1.16-.57a10.29,10.29,0,0,1-2.5,1.26,41.61,41.61,0,0,1-4.12.94c-1.38.23-2.76.44-4.12.78-1.15.29-2.36.35-3.53.58a34.23,34.23,0,0,0-6.67,1.72c-2,.84-4,1.69-6,2.65a26.21,26.21,0,0,0-4.11,2.94c-1.28,1-2.61,1.85-3.8,2.93a7.68,7.68,0,0,0-.59.55c-.31.38-.54.3-.74-.1a44.37,44.37,0,0,1,3.5-2.92c1.47-1,2.75-2.3,4.26-3.25a31.89,31.89,0,0,1,4.34-2.16,39.85,39.85,0,0,1,6.45-2.28c1.95-.5,3.94-.77,5.91-1.16,1.69-.34,3.36-.76,5.08-1a39.87,39.87,0,0,0,4.2-1,9.91,9.91,0,0,0,3-1.45c.09,0,.2-.16.2-.23,0-.23.09-.4.29-.37a.55.55,0,0,1,.47.51c.23,2.19,1.14,4.2,1.58,6.34a23.05,23.05,0,0,0,1.19,3.87,8.9,8.9,0,0,1,.5,2.71,25.49,25.49,0,0,1-.1,5.24,22.16,22.16,0,0,1-1.13,4.52,27.38,27.38,0,0,1-2.5,5.41,18.75,18.75,0,0,1-3,4c-.62.56-1.18,1.19-1.78,1.77a13.52,13.52,0,0,1-3.6,2.27,43.53,43.53,0,0,0-4.2,2.13A11.2,11.2,0,0,1,28.43,45a29.5,29.5,0,0,1-3.1.28,7.68,7.68,0,0,1-2.26-.27C21.94,44.76,20.73,44.87,19.58,44.62Z"/><path class="c" d="M23.24,44.58a25.14,25.14,0,0,0,2.66-.72c1.21-.57,2.39-1.22,3.56-1.86a26.94,26.94,0,0,0,5.25-3.46,26.61,26.61,0,0,0,3-3.32,45.72,45.72,0,0,0,4.32-6.37A39.92,39.92,0,0,0,44.45,24a15.37,15.37,0,0,0,.91-3.9c.27-2.41.74-4.79.83-7.22,0-.93,0-1.85,0-2.86a6.71,6.71,0,0,1,.52,1.57,26.25,26.25,0,0,0,1.33,5,15.28,15.28,0,0,1,.43,5.21,19.19,19.19,0,0,1-.83,4.86,30.29,30.29,0,0,1-4.15,8.44,28,28,0,0,1-2.58,3.07,14.58,14.58,0,0,1-4.66,3,33.37,33.37,0,0,0-4,2.05,9.84,9.84,0,0,1-3.81,1.18,24.44,24.44,0,0,1-3.63.27A6.9,6.9,0,0,1,23.24,44.58Z"/></svg>