<svg xmlns="http://www.w3.org/2000/svg" viewBox="0 0 50 50"><defs><style>.a{fill:#dc9ea5;}.b{fill:#edd0d3;}.c{fill:#e1b3b8;}</style></defs><path class="a" d="M39.25,13.13c-.07,1.14-.23,2.28-.2,3.42,0,1.4,0,2.8.08,4.2.08,2.09.11,4.2,0,6.28a24.38,24.38,0,0,1-2.28,8.64c-.42.95-.89,1.85-1.38,2.75a7.78,7.78,0,0,1-2.64,2.65,38.81,38.81,0,0,1-4.65,2.55,15.53,15.53,0,0,1-5.34,1.53,23.48,23.48,0,0,0-3.28.73,17.17,17.17,0,0,1-4.62.75A2,2,0,0,1,13,45.4a28.46,28.46,0,0,1-1.44-4.26c-.08-.32-.13-.42-.46-.29A3.07,3.07,0,0,1,9.49,41c-.57-.1-.93-.4-.86-1a23.74,23.74,0,0,1,1-5c.41-1.17.93-2.3,1.27-3.48a8,8,0,0,1,4.15-4.94c1.49-.81,3.09-1.37,4.58-2.17A40.28,40.28,0,0,0,23.87,22c.88-.62,1.79-1.17,2.72-1.7a19.07,19.07,0,0,0,6.77-6c1.1-1.66,2.34-3.23,3.41-4.91.62.27.7.53.36,1a1,1,0,0,1-.37.4,1.37,1.37,0,0,0-.52.6C35.16,13,34,14.61,32.83,16.18A15.44,15.44,0,0,1,28,20.29,29.94,29.94,0,0,1,25.22,22c-1.39.94-2.8,1.86-4.27,2.67-1.14.63-2.36,1.13-3.55,1.66a25.46,25.46,0,0,0-3.32,1.83,5.89,5.89,0,0,0-2.27,3.19A46.32,46.32,0,0,0,10,36.48a27.73,27.73,0,0,0-.61,3.12c-.08.64.15.87.78.76s1.27-.2,1.55-.94a1.28,1.28,0,0,1,.71-.68.36.36,0,0,1,.46,0,.31.31,0,0,1,0,.45,2.44,2.44,0,0,0-.29,2.85c.31.83.58,1.69.89,2.53A1.79,1.79,0,0,0,15.66,46a17.43,17.43,0,0,0,3.71-.74,30,30,0,0,1,4-.83,15.92,15.92,0,0,0,5.4-1.83A33.89,33.89,0,0,0,33.11,40a5.67,5.67,0,0,0,1.35-1.37,24.83,24.83,0,0,0,3.28-7.71,19.27,19.27,0,0,0,.63-5.56c0-1.25,0-2.5,0-3.74,0-1.89-.17-3.78-.1-5.67a17.12,17.12,0,0,1,.32-3C38.89,12.73,39.06,12.94,39.25,13.13Z"/><path class="a" d="M36.66,10.76c.67-.71.67-.71.11-1.38a17.41,17.41,0,0,0,1.61-5.21c0-.24,0-.62.3-.6a.87.87,0,0,1,.71.68,7.83,7.83,0,0,1,.22,1.44,28.15,28.15,0,0,1-.2,6.22c-.07.4.05.83-.16,1.22l-.6-.25c-.14-.13-.11-.3-.08-.47.3-1.71.36-3.45.48-4.7,0,.6-.21,1.66-.39,2.73-.06.37-.09.74-.12,1.11,0,.2-.08.39-.31.41a.42.42,0,0,1-.44-.36,2.29,2.29,0,0,1,0-1.07,13,13,0,0,1-2.16,3.8,26.43,26.43,0,0,0-2.53,4.56,22,22,0,0,1-3.74,5.62c-.79.82-1.52,1.7-2.23,2.59a27.34,27.34,0,0,1-4.72,4.59c-1.18.92-2.28,1.93-3.4,2.91A38.93,38.93,0,0,1,15.82,37c-.16.12-.4.35-.58.06s.1-.42.27-.55c.69-.54,1.36-1.09,2.06-1.62,1.26-1,2.31-2.15,3.53-3.14a32,32,0,0,0,4.55-4.23c1.08-1.26,2.12-2.55,3.21-3.81a16.12,16.12,0,0,0,3.22-4.77c.28-.71.78-1.34,1.06-2a18.06,18.06,0,0,1,2.29-3.67C35.94,12.44,36.12,11.51,36.66,10.76Z"/><path class="b" d="M28.93,23.75c-.68.83-1.37,1.64-2,2.48a30.42,30.42,0,0,1-3.27,3.54c-1.41,1.29-3,2.44-4.32,3.79a36.61,36.61,0,0,1-3.69,3,.58.58,0,0,0-.31.56c.66-.45,1.26-.84,1.85-1.25,1.61-1.12,3-2.52,4.5-3.76,1-.81,2-1.58,3-2.47,1.57-1.5,2.86-3.25,4.29-4.88.12-.13.2-.25.39-.27a3.59,3.59,0,0,1,1.34.17,3,3,0,0,0,3.06-1.21,7.5,7.5,0,0,1,1.39-2.05,1,1,0,0,1,1.48-.15,1.83,1.83,0,0,0,1.24.29c.25,0,.5-.12.71.09,0,1.92,0,3.83,0,5.75a16.11,16.11,0,0,1-.67,3.83,26,26,0,0,1-2.06,5.51,9.63,9.63,0,0,1-2.14,3.09,18.6,18.6,0,0,1-3.21,2.09c-1.27.64-2.5,1.34-3.83,1.87a18.08,18.08,0,0,1-3.94.94c-1.61.26-3.17.72-4.75,1.11a10.21,10.21,0,0,1-3,.32,1.73,1.73,0,0,1-1.56-1.29c-.44-1.15-.84-2.32-1.2-3.5a2,2,0,0,1,.55-2.17c.08-.09.28-.17.12-.35s-.28,0-.39.06a2.16,2.16,0,0,0-.7.77c-.12.21-.07.53-.45.6a3.45,3.45,0,0,1-1.85.2c-.22-.08-.27-.24-.24-.5a21.42,21.42,0,0,1,.9-4.35c.55-1.68,1.17-3.34,1.82-5a6.22,6.22,0,0,1,2.92-3.15c1.4-.79,2.86-1.44,4.31-2.11a32.16,32.16,0,0,0,5.22-3c.9-.63,1.86-1.14,2.8-1.7.27-.16.47-.4.75-.53.36.06.33.38.27.57a3.53,3.53,0,0,0,.59,2.47C28.87,23.36,29,23.53,28.93,23.75Z"/><path class="c" d="M38.52,21.63c-.51,0-1,.23-1.53,0a1.34,1.34,0,0,1-.53-.27.74.74,0,0,0-1.14,0,6.41,6.41,0,0,0-1.41,2,2,2,0,0,1-1.15,1.12,2.84,2.84,0,0,1-2.48.16c-.29-.15-.7.09-1-.2a10.28,10.28,0,0,1,1.3-1.71,13,13,0,0,0,2-3.24,39.38,39.38,0,0,1,2.18-4.24c.73-1.23,1.64-2.37,2.37-3.61a6.5,6.5,0,0,0,.49-1.07.59.59,0,0,1,.4-.43,3.68,3.68,0,0,0-.13,1.26c0,.2.05.4.29.4s.19-.22.21-.38A39.55,39.55,0,0,1,39.09,7a26.14,26.14,0,0,1-.44,5.86c0,1.07-.21,2.13-.24,3.2C38.38,17.93,38.51,19.78,38.52,21.63Z"/><path class="c" d="M28.93,23.75c-.42-.51-.46-1.22-.91-1.72-.18-.21-.1-.51,0-.78a1.45,1.45,0,0,0-.06-1.12,16.76,16.76,0,0,0,5.77-5.4c.88-1.31,1.85-2.57,2.73-3.9,0-.08.1-.19.23-.07a9.52,9.52,0,0,1-1.73,3.38,16.74,16.74,0,0,0-2.23,3.92,23.1,23.1,0,0,1-3.31,5.28A5.87,5.87,0,0,1,28.93,23.75Z"/></svg>